<?xml version="1.0" encoding="utf-8" standalone="no"?>
<!DOCTYPE svg PUBLIC "-//W3C//DTD SVG 1.1//EN"
  "http://www.w3.org/Graphics/SVG/1.1/DTD/svg11.dtd">
<!-- Created with matplotlib (https://matplotlib.org/) -->
<svg height="345.6pt" version="1.1" viewBox="0 0 460.8 345.6" width="460.8pt" xmlns="http://www.w3.org/2000/svg" xmlns:xlink="http://www.w3.org/1999/xlink">
 <defs>
  <style type="text/css">
*{stroke-linecap:butt;stroke-linejoin:round;}
  </style>
 </defs>
 <g id="figure_1">
  <g id="patch_1">
   <path d="M 0 345.6 
L 460.8 345.6 
L 460.8 0 
L 0 0 
z
" style="fill:#ffffff;"/>
  </g>
  <g id="axes_1">
   <g id="patch_2">
    <path d="M 57.6 307.584 
L 414.72 307.584 
L 414.72 41.472 
L 57.6 41.472 
z
" style="fill:#ffffff;"/>
   </g>
   <g id="matplotlib.axis_1">
    <g id="xtick_1">
     <g id="line2d_1">
      <defs>
       <path d="M 0 0 
L 0 3.5 
" id="m246db0c0a8" style="stroke:#000000;stroke-width:0.8;"/>
      </defs>
      <g>
       <use style="stroke:#000000;stroke-width:0.8;" x="73.832727" xlink:href="#m246db0c0a8" y="307.584"/>
      </g>
     </g>
     <g id="text_1">
      <!-- -10 -->
      <defs>
       <path d="M 4.890625 31.390625 
L 31.203125 31.390625 
L 31.203125 23.390625 
L 4.890625 23.390625 
z
" id="DejaVuSans-45"/>
       <path d="M 12.40625 8.296875 
L 28.515625 8.296875 
L 28.515625 63.921875 
L 10.984375 60.40625 
L 10.984375 69.390625 
L 28.421875 72.90625 
L 38.28125 72.90625 
L 38.28125 8.296875 
L 54.390625 8.296875 
L 54.390625 0 
L 12.40625 0 
z
" id="DejaVuSans-49"/>
       <path d="M 31.78125 66.40625 
Q 24.171875 66.40625 20.328125 58.90625 
Q 16.5 51.421875 16.5 36.375 
Q 16.5 21.390625 20.328125 13.890625 
Q 24.171875 6.390625 31.78125 6.390625 
Q 39.453125 6.390625 43.28125 13.890625 
Q 47.125 21.390625 47.125 36.375 
Q 47.125 51.421875 43.28125 58.90625 
Q 39.453125 66.40625 31.78125 66.40625 
z
M 31.78125 74.21875 
Q 44.046875 74.21875 50.515625 64.515625 
Q 56.984375 54.828125 56.984375 36.375 
Q 56.984375 17.96875 50.515625 8.265625 
Q 44.046875 -1.421875 31.78125 -1.421875 
Q 19.53125 -1.421875 13.0625 8.265625 
Q 6.59375 17.96875 6.59375 36.375 
Q 6.59375 54.828125 13.0625 64.515625 
Q 19.53125 74.21875 31.78125 74.21875 
z
" id="DejaVuSans-48"/>
      </defs>
      <g transform="translate(65.666321 322.182437)scale(0.1 -0.1)">
       <use xlink:href="#DejaVuSans-45"/>
       <use x="36.083984" xlink:href="#DejaVuSans-49"/>
       <use x="99.707031" xlink:href="#DejaVuSans-48"/>
      </g>
     </g>
    </g>
    <g id="xtick_2">
     <g id="line2d_2">
      <g>
       <use style="stroke:#000000;stroke-width:0.8;" x="90.073575" xlink:href="#m246db0c0a8" y="307.584"/>
      </g>
     </g>
     <g id="text_2">
      <!-- -9 -->
      <defs>
       <path d="M 10.984375 1.515625 
L 10.984375 10.5 
Q 14.703125 8.734375 18.5 7.8125 
Q 22.3125 6.890625 25.984375 6.890625 
Q 35.75 6.890625 40.890625 13.453125 
Q 46.046875 20.015625 46.78125 33.40625 
Q 43.953125 29.203125 39.59375 26.953125 
Q 35.25 24.703125 29.984375 24.703125 
Q 19.046875 24.703125 12.671875 31.3125 
Q 6.296875 37.9375 6.296875 49.421875 
Q 6.296875 60.640625 12.9375 67.421875 
Q 19.578125 74.21875 30.609375 74.21875 
Q 43.265625 74.21875 49.921875 64.515625 
Q 56.59375 54.828125 56.59375 36.375 
Q 56.59375 19.140625 48.40625 8.859375 
Q 40.234375 -1.421875 26.421875 -1.421875 
Q 22.703125 -1.421875 18.890625 -0.6875 
Q 15.09375 0.046875 10.984375 1.515625 
z
M 30.609375 32.421875 
Q 37.25 32.421875 41.125 36.953125 
Q 45.015625 41.5 45.015625 49.421875 
Q 45.015625 57.28125 41.125 61.84375 
Q 37.25 66.40625 30.609375 66.40625 
Q 23.96875 66.40625 20.09375 61.84375 
Q 16.21875 57.28125 16.21875 49.421875 
Q 16.21875 41.5 20.09375 36.953125 
Q 23.96875 32.421875 30.609375 32.421875 
z
" id="DejaVuSans-57"/>
      </defs>
      <g transform="translate(85.088419 322.182437)scale(0.1 -0.1)">
       <use xlink:href="#DejaVuSans-45"/>
       <use x="36.083984" xlink:href="#DejaVuSans-57"/>
      </g>
     </g>
    </g>
    <g id="xtick_3">
     <g id="line2d_3">
      <g>
       <use style="stroke:#000000;stroke-width:0.8;" x="106.314423" xlink:href="#m246db0c0a8" y="307.584"/>
      </g>
     </g>
     <g id="text_3">
      <!-- -8 -->
      <defs>
       <path d="M 31.78125 34.625 
Q 24.75 34.625 20.71875 30.859375 
Q 16.703125 27.09375 16.703125 20.515625 
Q 16.703125 13.921875 20.71875 10.15625 
Q 24.75 6.390625 31.78125 6.390625 
Q 38.8125 6.390625 42.859375 10.171875 
Q 46.921875 13.96875 46.921875 20.515625 
Q 46.921875 27.09375 42.890625 30.859375 
Q 38.875 34.625 31.78125 34.625 
z
M 21.921875 38.8125 
Q 15.578125 40.375 12.03125 44.71875 
Q 8.5 49.078125 8.5 55.328125 
Q 8.5 64.0625 14.71875 69.140625 
Q 20.953125 74.21875 31.78125 74.21875 
Q 42.671875 74.21875 48.875 69.140625 
Q 55.078125 64.0625 55.078125 55.328125 
Q 55.078125 49.078125 51.53125 44.71875 
Q 48 40.375 41.703125 38.8125 
Q 48.828125 37.15625 52.796875 32.3125 
Q 56.78125 27.484375 56.78125 20.515625 
Q 56.78125 9.90625 50.3125 4.234375 
Q 43.84375 -1.421875 31.78125 -1.421875 
Q 19.734375 -1.421875 13.25 4.234375 
Q 6.78125 9.90625 6.78125 20.515625 
Q 6.78125 27.484375 10.78125 32.3125 
Q 14.796875 37.15625 21.921875 38.8125 
z
M 18.3125 54.390625 
Q 18.3125 48.734375 21.84375 45.5625 
Q 25.390625 42.390625 31.78125 42.390625 
Q 38.140625 42.390625 41.71875 45.5625 
Q 45.3125 48.734375 45.3125 54.390625 
Q 45.3125 60.0625 41.71875 63.234375 
Q 38.140625 66.40625 31.78125 66.40625 
Q 25.390625 66.40625 21.84375 63.234375 
Q 18.3125 60.0625 18.3125 54.390625 
z
" id="DejaVuSans-56"/>
      </defs>
      <g transform="translate(101.329266 322.182437)scale(0.1 -0.1)">
       <use xlink:href="#DejaVuSans-45"/>
       <use x="36.083984" xlink:href="#DejaVuSans-56"/>
      </g>
     </g>
    </g>
    <g id="xtick_4">
     <g id="line2d_4">
      <g>
       <use style="stroke:#000000;stroke-width:0.8;" x="122.55527" xlink:href="#m246db0c0a8" y="307.584"/>
      </g>
     </g>
     <g id="text_4">
      <!-- -7 -->
      <defs>
       <path d="M 8.203125 72.90625 
L 55.078125 72.90625 
L 55.078125 68.703125 
L 28.609375 0 
L 18.3125 0 
L 43.21875 64.59375 
L 8.203125 64.59375 
z
" id="DejaVuSans-55"/>
      </defs>
      <g transform="translate(117.570114 322.182437)scale(0.1 -0.1)">
       <use xlink:href="#DejaVuSans-45"/>
       <use x="36.083984" xlink:href="#DejaVuSans-55"/>
      </g>
     </g>
    </g>
    <g id="xtick_5">
     <g id="line2d_5">
      <g>
       <use style="stroke:#000000;stroke-width:0.8;" x="138.796118" xlink:href="#m246db0c0a8" y="307.584"/>
      </g>
     </g>
     <g id="text_5">
      <!-- -6 -->
      <defs>
       <path d="M 33.015625 40.375 
Q 26.375 40.375 22.484375 35.828125 
Q 18.609375 31.296875 18.609375 23.390625 
Q 18.609375 15.53125 22.484375 10.953125 
Q 26.375 6.390625 33.015625 6.390625 
Q 39.65625 6.390625 43.53125 10.953125 
Q 47.40625 15.53125 47.40625 23.390625 
Q 47.40625 31.296875 43.53125 35.828125 
Q 39.65625 40.375 33.015625 40.375 
z
M 52.59375 71.296875 
L 52.59375 62.3125 
Q 48.875 64.0625 45.09375 64.984375 
Q 41.3125 65.921875 37.59375 65.921875 
Q 27.828125 65.921875 22.671875 59.328125 
Q 17.53125 52.734375 16.796875 39.40625 
Q 19.671875 43.65625 24.015625 45.921875 
Q 28.375 48.1875 33.59375 48.1875 
Q 44.578125 48.1875 50.953125 41.515625 
Q 57.328125 34.859375 57.328125 23.390625 
Q 57.328125 12.15625 50.6875 5.359375 
Q 44.046875 -1.421875 33.015625 -1.421875 
Q 20.359375 -1.421875 13.671875 8.265625 
Q 6.984375 17.96875 6.984375 36.375 
Q 6.984375 53.65625 15.1875 63.9375 
Q 23.390625 74.21875 37.203125 74.21875 
Q 40.921875 74.21875 44.703125 73.484375 
Q 48.484375 72.75 52.59375 71.296875 
z
" id="DejaVuSans-54"/>
      </defs>
      <g transform="translate(133.810962 322.182437)scale(0.1 -0.1)">
       <use xlink:href="#DejaVuSans-45"/>
       <use x="36.083984" xlink:href="#DejaVuSans-54"/>
      </g>
     </g>
    </g>
    <g id="xtick_6">
     <g id="line2d_6">
      <g>
       <use style="stroke:#000000;stroke-width:0.8;" x="155.036966" xlink:href="#m246db0c0a8" y="307.584"/>
      </g>
     </g>
     <g id="text_6">
      <!-- -5 -->
      <defs>
       <path d="M 10.796875 72.90625 
L 49.515625 72.90625 
L 49.515625 64.59375 
L 19.828125 64.59375 
L 19.828125 46.734375 
Q 21.96875 47.46875 24.109375 47.828125 
Q 26.265625 48.1875 28.421875 48.1875 
Q 40.625 48.1875 47.75 41.5 
Q 54.890625 34.8125 54.890625 23.390625 
Q 54.890625 11.625 47.5625 5.09375 
Q 40.234375 -1.421875 26.90625 -1.421875 
Q 22.3125 -1.421875 17.546875 -0.640625 
Q 12.796875 0.140625 7.71875 1.703125 
L 7.71875 11.625 
Q 12.109375 9.234375 16.796875 8.0625 
Q 21.484375 6.890625 26.703125 6.890625 
Q 35.15625 6.890625 40.078125 11.328125 
Q 45.015625 15.765625 45.015625 23.390625 
Q 45.015625 31 40.078125 35.4375 
Q 35.15625 39.890625 26.703125 39.890625 
Q 22.75 39.890625 18.8125 39.015625 
Q 14.890625 38.140625 10.796875 36.28125 
z
" id="DejaVuSans-53"/>
      </defs>
      <g transform="translate(150.05181 322.182437)scale(0.1 -0.1)">
       <use xlink:href="#DejaVuSans-45"/>
       <use x="36.083984" xlink:href="#DejaVuSans-53"/>
      </g>
     </g>
    </g>
    <g id="xtick_7">
     <g id="line2d_7">
      <g>
       <use style="stroke:#000000;stroke-width:0.8;" x="171.277813" xlink:href="#m246db0c0a8" y="307.584"/>
      </g>
     </g>
     <g id="text_7">
      <!-- -4 -->
      <defs>
       <path d="M 37.796875 64.3125 
L 12.890625 25.390625 
L 37.796875 25.390625 
z
M 35.203125 72.90625 
L 47.609375 72.90625 
L 47.609375 25.390625 
L 58.015625 25.390625 
L 58.015625 17.1875 
L 47.609375 17.1875 
L 47.609375 0 
L 37.796875 0 
L 37.796875 17.1875 
L 4.890625 17.1875 
L 4.890625 26.703125 
z
" id="DejaVuSans-52"/>
      </defs>
      <g transform="translate(166.292657 322.182437)scale(0.1 -0.1)">
       <use xlink:href="#DejaVuSans-45"/>
       <use x="36.083984" xlink:href="#DejaVuSans-52"/>
      </g>
     </g>
    </g>
    <g id="xtick_8">
     <g id="line2d_8">
      <g>
       <use style="stroke:#000000;stroke-width:0.8;" x="187.518661" xlink:href="#m246db0c0a8" y="307.584"/>
      </g>
     </g>
     <g id="text_8">
      <!-- -3 -->
      <defs>
       <path d="M 40.578125 39.3125 
Q 47.65625 37.796875 51.625 33 
Q 55.609375 28.21875 55.609375 21.1875 
Q 55.609375 10.40625 48.1875 4.484375 
Q 40.765625 -1.421875 27.09375 -1.421875 
Q 22.515625 -1.421875 17.65625 -0.515625 
Q 12.796875 0.390625 7.625 2.203125 
L 7.625 11.71875 
Q 11.71875 9.328125 16.59375 8.109375 
Q 21.484375 6.890625 26.8125 6.890625 
Q 36.078125 6.890625 40.9375 10.546875 
Q 45.796875 14.203125 45.796875 21.1875 
Q 45.796875 27.640625 41.28125 31.265625 
Q 36.765625 34.90625 28.71875 34.90625 
L 20.21875 34.90625 
L 20.21875 43.015625 
L 29.109375 43.015625 
Q 36.375 43.015625 40.234375 45.921875 
Q 44.09375 48.828125 44.09375 54.296875 
Q 44.09375 59.90625 40.109375 62.90625 
Q 36.140625 65.921875 28.71875 65.921875 
Q 24.65625 65.921875 20.015625 65.03125 
Q 15.375 64.15625 9.8125 62.3125 
L 9.8125 71.09375 
Q 15.4375 72.65625 20.34375 73.4375 
Q 25.25 74.21875 29.59375 74.21875 
Q 40.828125 74.21875 47.359375 69.109375 
Q 53.90625 64.015625 53.90625 55.328125 
Q 53.90625 49.265625 50.4375 45.09375 
Q 46.96875 40.921875 40.578125 39.3125 
z
" id="DejaVuSans-51"/>
      </defs>
      <g transform="translate(182.533505 322.182437)scale(0.1 -0.1)">
       <use xlink:href="#DejaVuSans-45"/>
       <use x="36.083984" xlink:href="#DejaVuSans-51"/>
      </g>
     </g>
    </g>
    <g id="xtick_9">
     <g id="line2d_9">
      <g>
       <use style="stroke:#000000;stroke-width:0.8;" x="203.759509" xlink:href="#m246db0c0a8" y="307.584"/>
      </g>
     </g>
     <g id="text_9">
      <!-- -2 -->
      <defs>
       <path d="M 19.1875 8.296875 
L 53.609375 8.296875 
L 53.609375 0 
L 7.328125 0 
L 7.328125 8.296875 
Q 12.9375 14.109375 22.625 23.890625 
Q 32.328125 33.6875 34.8125 36.53125 
Q 39.546875 41.84375 41.421875 45.53125 
Q 43.3125 49.21875 43.3125 52.78125 
Q 43.3125 58.59375 39.234375 62.25 
Q 35.15625 65.921875 28.609375 65.921875 
Q 23.96875 65.921875 18.8125 64.3125 
Q 13.671875 62.703125 7.8125 59.421875 
L 7.8125 69.390625 
Q 13.765625 71.78125 18.9375 73 
Q 24.125 74.21875 28.421875 74.21875 
Q 39.75 74.21875 46.484375 68.546875 
Q 53.21875 62.890625 53.21875 53.421875 
Q 53.21875 48.921875 51.53125 44.890625 
Q 49.859375 40.875 45.40625 35.40625 
Q 44.1875 33.984375 37.640625 27.21875 
Q 31.109375 20.453125 19.1875 8.296875 
z
" id="DejaVuSans-50"/>
      </defs>
      <g transform="translate(198.774353 322.182437)scale(0.1 -0.1)">
       <use xlink:href="#DejaVuSans-45"/>
       <use x="36.083984" xlink:href="#DejaVuSans-50"/>
      </g>
     </g>
    </g>
    <g id="xtick_10">
     <g id="line2d_10">
      <g>
       <use style="stroke:#000000;stroke-width:0.8;" x="220.000357" xlink:href="#m246db0c0a8" y="307.584"/>
      </g>
     </g>
     <g id="text_10">
      <!-- -1 -->
      <g transform="translate(215.0152 322.182437)scale(0.1 -0.1)">
       <use xlink:href="#DejaVuSans-45"/>
       <use x="36.083984" xlink:href="#DejaVuSans-49"/>
      </g>
     </g>
    </g>
    <g id="xtick_11">
     <g id="line2d_11">
      <g>
       <use style="stroke:#000000;stroke-width:0.8;" x="236.241204" xlink:href="#m246db0c0a8" y="307.584"/>
      </g>
     </g>
     <g id="text_11">
      <!-- 0 -->
      <g transform="translate(233.059954 322.182437)scale(0.1 -0.1)">
       <use xlink:href="#DejaVuSans-48"/>
      </g>
     </g>
    </g>
    <g id="xtick_12">
     <g id="line2d_12">
      <g>
       <use style="stroke:#000000;stroke-width:0.8;" x="252.482052" xlink:href="#m246db0c0a8" y="307.584"/>
      </g>
     </g>
     <g id="text_12">
      <!-- 1 -->
      <g transform="translate(249.300802 322.182437)scale(0.1 -0.1)">
       <use xlink:href="#DejaVuSans-49"/>
      </g>
     </g>
    </g>
    <g id="xtick_13">
     <g id="line2d_13">
      <g>
       <use style="stroke:#000000;stroke-width:0.8;" x="268.7229" xlink:href="#m246db0c0a8" y="307.584"/>
      </g>
     </g>
     <g id="text_13">
      <!-- 2 -->
      <g transform="translate(265.54165 322.182437)scale(0.1 -0.1)">
       <use xlink:href="#DejaVuSans-50"/>
      </g>
     </g>
    </g>
    <g id="xtick_14">
     <g id="line2d_14">
      <g>
       <use style="stroke:#000000;stroke-width:0.8;" x="284.963747" xlink:href="#m246db0c0a8" y="307.584"/>
      </g>
     </g>
     <g id="text_14">
      <!-- 3 -->
      <g transform="translate(281.782497 322.182437)scale(0.1 -0.1)">
       <use xlink:href="#DejaVuSans-51"/>
      </g>
     </g>
    </g>
    <g id="xtick_15">
     <g id="line2d_15">
      <g>
       <use style="stroke:#000000;stroke-width:0.8;" x="301.204595" xlink:href="#m246db0c0a8" y="307.584"/>
      </g>
     </g>
     <g id="text_15">
      <!-- 4 -->
      <g transform="translate(298.023345 322.182437)scale(0.1 -0.1)">
       <use xlink:href="#DejaVuSans-52"/>
      </g>
     </g>
    </g>
    <g id="xtick_16">
     <g id="line2d_16">
      <g>
       <use style="stroke:#000000;stroke-width:0.8;" x="317.445443" xlink:href="#m246db0c0a8" y="307.584"/>
      </g>
     </g>
     <g id="text_16">
      <!-- 5 -->
      <g transform="translate(314.264193 322.182437)scale(0.1 -0.1)">
       <use xlink:href="#DejaVuSans-53"/>
      </g>
     </g>
    </g>
    <g id="xtick_17">
     <g id="line2d_17">
      <g>
       <use style="stroke:#000000;stroke-width:0.8;" x="333.68629" xlink:href="#m246db0c0a8" y="307.584"/>
      </g>
     </g>
     <g id="text_17">
      <!-- 6 -->
      <g transform="translate(330.50504 322.182437)scale(0.1 -0.1)">
       <use xlink:href="#DejaVuSans-54"/>
      </g>
     </g>
    </g>
    <g id="xtick_18">
     <g id="line2d_18">
      <g>
       <use style="stroke:#000000;stroke-width:0.8;" x="349.927138" xlink:href="#m246db0c0a8" y="307.584"/>
      </g>
     </g>
     <g id="text_18">
      <!-- 7 -->
      <g transform="translate(346.745888 322.182437)scale(0.1 -0.1)">
       <use xlink:href="#DejaVuSans-55"/>
      </g>
     </g>
    </g>
    <g id="xtick_19">
     <g id="line2d_19">
      <g>
       <use style="stroke:#000000;stroke-width:0.8;" x="366.167986" xlink:href="#m246db0c0a8" y="307.584"/>
      </g>
     </g>
     <g id="text_19">
      <!-- 8 -->
      <g transform="translate(362.986736 322.182437)scale(0.1 -0.1)">
       <use xlink:href="#DejaVuSans-56"/>
      </g>
     </g>
    </g>
    <g id="xtick_20">
     <g id="line2d_20">
      <g>
       <use style="stroke:#000000;stroke-width:0.8;" x="382.408834" xlink:href="#m246db0c0a8" y="307.584"/>
      </g>
     </g>
     <g id="text_20">
      <!-- 9 -->
      <g transform="translate(379.227584 322.182437)scale(0.1 -0.1)">
       <use xlink:href="#DejaVuSans-57"/>
      </g>
     </g>
    </g>
    <g id="xtick_21">
     <g id="line2d_21">
      <g>
       <use style="stroke:#000000;stroke-width:0.8;" x="398.649681" xlink:href="#m246db0c0a8" y="307.584"/>
      </g>
     </g>
     <g id="text_21">
      <!-- 10 -->
      <g transform="translate(392.287181 322.182437)scale(0.1 -0.1)">
       <use xlink:href="#DejaVuSans-49"/>
       <use x="63.623047" xlink:href="#DejaVuSans-48"/>
      </g>
     </g>
    </g>
    <g id="text_22">
     <!-- E -->
     <defs>
      <path d="M 9.8125 72.90625 
L 55.90625 72.90625 
L 55.90625 64.59375 
L 19.671875 64.59375 
L 19.671875 43.015625 
L 54.390625 43.015625 
L 54.390625 34.71875 
L 19.671875 34.71875 
L 19.671875 8.296875 
L 56.78125 8.296875 
L 56.78125 0 
L 9.8125 0 
z
" id="DejaVuSans-69"/>
     </defs>
     <g transform="translate(233.000625 335.860562)scale(0.1 -0.1)">
      <use xlink:href="#DejaVuSans-69"/>
     </g>
    </g>
   </g>
   <g id="matplotlib.axis_2">
    <g id="ytick_1">
     <g id="line2d_22">
      <defs>
       <path d="M 0 0 
L -3.5 0 
" id="m99b9b3d750" style="stroke:#000000;stroke-width:0.8;"/>
      </defs>
      <g>
       <use style="stroke:#000000;stroke-width:0.8;" x="57.6" xlink:href="#m99b9b3d750" y="297.599999"/>
      </g>
     </g>
     <g id="text_23">
      <!-- 0.000 -->
      <defs>
       <path d="M 10.6875 12.40625 
L 21 12.40625 
L 21 0 
L 10.6875 0 
z
" id="DejaVuSans-46"/>
      </defs>
      <g transform="translate(21.971875 301.399218)scale(0.1 -0.1)">
       <use xlink:href="#DejaVuSans-48"/>
       <use x="63.623047" xlink:href="#DejaVuSans-46"/>
       <use x="95.410156" xlink:href="#DejaVuSans-48"/>
       <use x="159.033203" xlink:href="#DejaVuSans-48"/>
       <use x="222.65625" xlink:href="#DejaVuSans-48"/>
      </g>
     </g>
    </g>
    <g id="ytick_2">
     <g id="line2d_23">
      <g>
       <use style="stroke:#000000;stroke-width:0.8;" x="57.6" xlink:href="#m99b9b3d750" y="266.197728"/>
      </g>
     </g>
     <g id="text_24">
      <!-- 0.025 -->
      <g transform="translate(21.971875 269.996947)scale(0.1 -0.1)">
       <use xlink:href="#DejaVuSans-48"/>
       <use x="63.623047" xlink:href="#DejaVuSans-46"/>
       <use x="95.410156" xlink:href="#DejaVuSans-48"/>
       <use x="159.033203" xlink:href="#DejaVuSans-50"/>
       <use x="222.65625" xlink:href="#DejaVuSans-53"/>
      </g>
     </g>
    </g>
    <g id="ytick_3">
     <g id="line2d_24">
      <g>
       <use style="stroke:#000000;stroke-width:0.8;" x="57.6" xlink:href="#m99b9b3d750" y="234.795458"/>
      </g>
     </g>
     <g id="text_25">
      <!-- 0.050 -->
      <g transform="translate(21.971875 238.594677)scale(0.1 -0.1)">
       <use xlink:href="#DejaVuSans-48"/>
       <use x="63.623047" xlink:href="#DejaVuSans-46"/>
       <use x="95.410156" xlink:href="#DejaVuSans-48"/>
       <use x="159.033203" xlink:href="#DejaVuSans-53"/>
       <use x="222.65625" xlink:href="#DejaVuSans-48"/>
      </g>
     </g>
    </g>
    <g id="ytick_4">
     <g id="line2d_25">
      <g>
       <use style="stroke:#000000;stroke-width:0.8;" x="57.6" xlink:href="#m99b9b3d750" y="203.393187"/>
      </g>
     </g>
     <g id="text_26">
      <!-- 0.075 -->
      <g transform="translate(21.971875 207.192406)scale(0.1 -0.1)">
       <use xlink:href="#DejaVuSans-48"/>
       <use x="63.623047" xlink:href="#DejaVuSans-46"/>
       <use x="95.410156" xlink:href="#DejaVuSans-48"/>
       <use x="159.033203" xlink:href="#DejaVuSans-55"/>
       <use x="222.65625" xlink:href="#DejaVuSans-53"/>
      </g>
     </g>
    </g>
    <g id="ytick_5">
     <g id="line2d_26">
      <g>
       <use style="stroke:#000000;stroke-width:0.8;" x="57.6" xlink:href="#m99b9b3d750" y="171.990917"/>
      </g>
     </g>
     <g id="text_27">
      <!-- 0.100 -->
      <g transform="translate(21.971875 175.790136)scale(0.1 -0.1)">
       <use xlink:href="#DejaVuSans-48"/>
       <use x="63.623047" xlink:href="#DejaVuSans-46"/>
       <use x="95.410156" xlink:href="#DejaVuSans-49"/>
       <use x="159.033203" xlink:href="#DejaVuSans-48"/>
       <use x="222.65625" xlink:href="#DejaVuSans-48"/>
      </g>
     </g>
    </g>
    <g id="ytick_6">
     <g id="line2d_27">
      <g>
       <use style="stroke:#000000;stroke-width:0.8;" x="57.6" xlink:href="#m99b9b3d750" y="140.588646"/>
      </g>
     </g>
     <g id="text_28">
      <!-- 0.125 -->
      <g transform="translate(21.971875 144.387865)scale(0.1 -0.1)">
       <use xlink:href="#DejaVuSans-48"/>
       <use x="63.623047" xlink:href="#DejaVuSans-46"/>
       <use x="95.410156" xlink:href="#DejaVuSans-49"/>
       <use x="159.033203" xlink:href="#DejaVuSans-50"/>
       <use x="222.65625" xlink:href="#DejaVuSans-53"/>
      </g>
     </g>
    </g>
    <g id="ytick_7">
     <g id="line2d_28">
      <g>
       <use style="stroke:#000000;stroke-width:0.8;" x="57.6" xlink:href="#m99b9b3d750" y="109.186376"/>
      </g>
     </g>
     <g id="text_29">
      <!-- 0.150 -->
      <g transform="translate(21.971875 112.985594)scale(0.1 -0.1)">
       <use xlink:href="#DejaVuSans-48"/>
       <use x="63.623047" xlink:href="#DejaVuSans-46"/>
       <use x="95.410156" xlink:href="#DejaVuSans-49"/>
       <use x="159.033203" xlink:href="#DejaVuSans-53"/>
       <use x="222.65625" xlink:href="#DejaVuSans-48"/>
      </g>
     </g>
    </g>
    <g id="ytick_8">
     <g id="line2d_29">
      <g>
       <use style="stroke:#000000;stroke-width:0.8;" x="57.6" xlink:href="#m99b9b3d750" y="77.784105"/>
      </g>
     </g>
     <g id="text_30">
      <!-- 0.175 -->
      <g transform="translate(21.971875 81.583324)scale(0.1 -0.1)">
       <use xlink:href="#DejaVuSans-48"/>
       <use x="63.623047" xlink:href="#DejaVuSans-46"/>
       <use x="95.410156" xlink:href="#DejaVuSans-49"/>
       <use x="159.033203" xlink:href="#DejaVuSans-55"/>
       <use x="222.65625" xlink:href="#DejaVuSans-53"/>
      </g>
     </g>
    </g>
    <g id="ytick_9">
     <g id="line2d_30">
      <g>
       <use style="stroke:#000000;stroke-width:0.8;" x="57.6" xlink:href="#m99b9b3d750" y="46.381835"/>
      </g>
     </g>
     <g id="text_31">
      <!-- 0.200 -->
      <g transform="translate(21.971875 50.181053)scale(0.1 -0.1)">
       <use xlink:href="#DejaVuSans-48"/>
       <use x="63.623047" xlink:href="#DejaVuSans-46"/>
       <use x="95.410156" xlink:href="#DejaVuSans-50"/>
       <use x="159.033203" xlink:href="#DejaVuSans-48"/>
       <use x="222.65625" xlink:href="#DejaVuSans-48"/>
      </g>
     </g>
    </g>
   </g>
   <g id="line2d_31">
    <path clip-path="url(#pca02be3f06)" d="M 73.832727 295.482017 
L 92.184885 294.86472 
L 106.476831 294.169413 
L 117.845425 293.40042 
L 127.102708 292.557345 
L 134.735906 291.646088 
L 141.232245 290.650512 
L 146.754133 289.582658 
L 151.463979 288.452717 
L 155.6866 287.210326 
L 159.259586 285.93679 
L 162.507756 284.550027 
L 165.431108 283.063668 
L 168.029644 281.502627 
L 170.465771 279.781682 
L 172.73949 277.894617 
L 174.8508 275.839707 
L 176.799702 273.62169 
L 178.586195 271.254041 
L 180.372688 268.491598 
L 181.996773 265.558462 
L 183.620858 262.128971 
L 185.082534 258.520449 
L 186.54421 254.302872 
L 188.005887 249.334665 
L 189.305154 244.143275 
L 190.604422 238.057398 
L 191.90369 230.881166 
L 193.202958 222.378084 
L 194.502226 212.2728 
L 195.801493 200.266958 
L 197.100761 186.083892 
L 198.562438 167.335828 
L 200.186522 143.334923 
L 203.921917 86.274342 
L 205.058777 73.034781 
L 205.870819 65.708876 
L 206.682861 60.239072 
L 207.332495 57.142618 
L 207.982129 55.081978 
L 208.469355 54.143284 
L 208.95658 53.662408 
L 209.281397 53.568 
L 209.606214 53.635168 
L 210.093439 54.004028 
L 210.743073 54.918095 
L 211.555116 56.589153 
L 212.691975 59.603898 
L 214.478468 65.157072 
L 218.376272 77.42654 
L 220.325173 82.798038 
L 222.111667 87.115954 
L 223.89816 90.842757 
L 225.522245 93.730868 
L 227.14633 96.162606 
L 228.608006 97.977988 
L 230.069682 99.45444 
L 231.531358 100.604179 
L 232.830626 101.359956 
L 234.129894 101.870723 
L 235.429162 102.14009 
L 236.72843 102.169976 
L 238.027697 101.960592 
L 239.326965 101.510448 
L 240.626233 100.816353 
L 241.925501 99.873448 
L 243.224769 98.675257 
L 244.686445 97.012151 
L 246.148121 95.002489 
L 247.609798 92.631536 
L 249.233882 89.555282 
L 250.857967 85.997192 
L 252.64446 81.518153 
L 254.593362 75.983836 
L 257.029489 68.321308 
L 259.952842 59.137901 
L 261.089701 56.216001 
L 261.901744 54.649603 
L 262.551378 53.847895 
L 263.038603 53.582403 
L 263.36342 53.593982 
L 263.688237 53.77536 
L 264.175462 54.402495 
L 264.662688 55.506416 
L 265.149913 57.142618 
L 265.799547 60.239072 
L 266.449181 64.467457 
L 267.261223 71.421393 
L 268.235674 82.162331 
L 269.372534 97.52429 
L 271.159027 125.290064 
L 273.595154 162.777146 
L 275.05683 182.174587 
L 276.518507 198.618069 
L 277.817774 210.882157 
L 279.117042 221.208551 
L 280.41631 229.896144 
L 281.715578 237.224448 
L 283.177254 244.143275 
L 284.63893 249.928988 
L 286.100607 254.805667 
L 287.562283 258.949206 
L 289.186368 262.859835 
L 290.810452 266.181513 
L 292.434537 269.027157 
L 294.221031 271.711496 
L 296.007524 274.015749 
L 297.956425 276.177533 
L 300.067736 278.183229 
L 302.341454 280.027672 
L 304.777582 281.712005 
L 307.376117 283.241787 
L 310.29947 284.700188 
L 313.547639 286.062527 
L 317.120626 287.315108 
L 321.180838 288.495758 
L 325.728275 289.582658 
L 330.925346 290.594025 
L 336.93446 291.534246 
L 344.080433 292.418218 
L 352.525674 293.228423 
L 362.594999 293.963161 
L 374.938044 294.63171 
L 390.20444 295.227645 
L 398.487273 295.477525 
L 398.487273 295.477525 
" style="fill:none;stroke:#1f77b4;stroke-linecap:square;stroke-width:1.5;"/>
   </g>
   <g id="line2d_32">
    <path clip-path="url(#pca02be3f06)" d="M 73.832727 295.488 
L 92.022477 294.874948 
L 106.152014 294.185932 
L 117.358199 293.425946 
L 126.453074 292.595392 
L 133.923864 291.701142 
L 140.257794 290.728151 
L 145.617274 289.689823 
L 150.32712 288.554512 
L 154.387332 287.350806 
L 157.960318 286.063223 
L 161.046079 284.727126 
L 163.807024 283.305509 
L 166.405559 281.719112 
L 168.679278 280.081516 
L 170.790588 278.29914 
L 172.73949 276.375242 
L 174.525983 274.320466 
L 176.312476 271.920535 
L 177.936561 269.368323 
L 179.560646 266.378115 
L 181.022322 263.224251 
L 182.483998 259.528488 
L 183.945675 255.163425 
L 185.244942 250.592687 
L 186.54421 245.229454 
L 187.843478 238.913013 
L 189.142746 231.466816 
L 190.442014 222.720234 
L 191.90369 211.183026 
L 193.527775 196.322893 
L 196.288719 168.270995 
L 198.075212 151.171943 
L 199.37448 140.581314 
L 200.673748 131.795901 
L 201.973016 124.529515 
L 203.5971 116.763903 
L 209.118989 92.312238 
L 210.255848 88.134431 
L 211.230299 85.345958 
L 212.042341 83.719583 
L 212.691975 82.916126 
L 213.179201 82.607385 
L 213.666426 82.543694 
L 214.153651 82.712272 
L 214.640877 83.095203 
L 215.290511 83.901104 
L 216.102553 85.300651 
L 217.239412 87.78299 
L 219.350723 93.112928 
L 221.137216 97.414972 
L 222.436484 99.982727 
L 223.573343 101.705493 
L 224.547794 102.788461 
L 225.522245 103.550329 
L 226.496696 104.050464 
L 227.633555 104.38508 
L 229.095231 104.569551 
L 232.018584 104.879773 
L 235.59157 105.471355 
L 236.890838 105.350758 
L 243.06236 104.351404 
L 244.848854 104.024489 
L 245.985713 103.611525 
L 246.960164 103.052962 
L 247.934615 102.245106 
L 248.909065 101.138158 
L 249.883516 99.704391 
L 251.020376 97.636109 
L 252.64446 94.165564 
L 255.080588 88.978294 
L 256.542264 86.437306 
L 257.841532 84.599789 
L 259.140799 83.114721 
L 260.277659 82.126397 
L 261.25211 81.578879 
L 262.064152 81.400898 
L 262.713786 81.485688 
L 263.36342 81.809063 
L 264.013054 82.401827 
L 264.662688 83.286848 
L 265.47473 84.818773 
L 266.449181 87.261747 
L 267.58604 90.845646 
L 268.885308 95.733297 
L 270.184576 101.413288 
L 271.483844 108.134272 
L 272.620703 115.246533 
L 273.757562 123.824315 
L 275.05683 135.54803 
L 276.680915 152.612646 
L 281.228352 202.0319 
L 282.690029 214.973081 
L 284.151705 225.932928 
L 285.450973 234.141903 
L 286.750241 241.099375 
L 288.211917 247.671734 
L 289.673593 253.156248 
L 291.135269 257.763396 
L 292.596946 261.66303 
L 294.221031 265.328982 
L 295.845115 268.431026 
L 297.4692 271.07976 
L 299.255693 273.571143 
L 301.204595 275.883167 
L 303.153497 277.855079 
L 305.264807 279.683077 
L 307.538526 281.363362 
L 309.974653 282.8977 
L 312.735597 284.371683 
L 315.821358 285.756032 
L 319.231936 287.033697 
L 323.129739 288.243087 
L 327.514768 289.359238 
L 332.549431 290.400206 
L 338.396136 291.369516 
L 345.217292 292.263191 
L 353.175308 293.074982 
L 362.757408 293.821961 
L 374.450818 294.501719 
L 388.905173 295.110858 
L 398.487273 295.418921 
L 398.487273 295.418921 
" style="fill:none;stroke:#ff7f0e;stroke-linecap:square;stroke-width:1.5;"/>
   </g>
   <g id="line2d_33">
    <path clip-path="url(#pca02be3f06)" d="M 73.832727 295.421644 
L 91.210434 294.800228 
L 104.690338 294.104074 
L 115.409297 293.334391 
L 124.016947 292.502228 
L 131.16292 291.595897 
L 137.172033 290.615584 
L 142.206696 289.578711 
L 146.591725 288.45557 
L 150.32712 287.281294 
L 153.737698 285.976908 
L 156.661051 284.627947 
L 159.259586 283.197389 
L 161.695713 281.60293 
L 163.807024 279.969693 
L 165.755925 278.201423 
L 167.704827 276.119355 
L 169.49132 273.865042 
L 171.115405 271.456388 
L 172.73949 268.620652 
L 174.201166 265.615463 
L 175.662842 262.07853 
L 177.124519 257.885665 
L 178.423786 253.48618 
L 179.723054 248.326018 
L 181.022322 242.273537 
L 182.32159 235.204645 
L 183.783266 225.927064 
L 185.244942 215.221354 
L 187.031436 200.3688 
L 189.467563 177.976691 
L 192.066099 154.524706 
L 193.365366 144.709686 
L 194.339817 138.800236 
L 195.15186 135.004089 
L 195.963902 132.29445 
L 196.613536 130.901425 
L 197.100761 130.285295 
L 197.587987 130.008608 
L 198.075212 130.0384 
L 198.562438 130.335552 
L 199.212071 131.070642 
L 200.024114 132.370616 
L 202.460241 136.564373 
L 203.109875 137.266158 
L 203.759509 137.665881 
L 204.246734 137.756544 
L 204.73396 137.672306 
L 205.383594 137.312604 
L 206.195636 136.541908 
L 207.494904 134.887653 
L 209.281397 132.650006 
L 210.418256 131.600603 
L 211.717524 130.728374 
L 213.341609 129.617943 
L 214.31606 128.645628 
L 215.290511 127.333505 
L 216.42737 125.405556 
L 220.487582 118.054529 
L 221.462033 116.948759 
L 222.274075 116.356538 
L 223.086118 116.068718 
L 223.89816 116.062988 
L 224.710202 116.290564 
L 225.847062 116.862208 
L 228.283189 118.149743 
L 229.582457 118.521547 
L 231.044133 118.673196 
L 233.805077 118.654581 
L 236.72843 118.477345 
L 238.352514 118.176192 
L 239.814191 117.678387 
L 241.275867 116.939835 
L 243.711994 115.641095 
L 244.686445 115.390122 
L 245.498487 115.398064 
L 246.31053 115.629682 
L 247.122572 116.091724 
L 248.097023 116.941862 
L 249.233882 118.297008 
L 250.857967 120.6696 
L 252.482052 122.953466 
L 253.294094 123.784708 
L 253.943728 124.196364 
L 254.593362 124.331397 
L 255.080588 124.231875 
L 255.730221 123.82128 
L 256.379855 123.10197 
L 257.191898 121.821437 
L 258.328757 119.537891 
L 260.277659 115.553979 
L 261.089701 114.355525 
L 261.739335 113.730752 
L 262.388969 113.440724 
L 262.876194 113.44809 
L 263.36342 113.642088 
L 264.013054 114.167904 
L 264.825096 115.187978 
L 265.961956 117.082461 
L 268.885308 122.227559 
L 270.184576 123.931554 
L 273.107929 127.462889 
L 274.082379 129.183635 
L 275.05683 131.429807 
L 276.031281 134.293956 
L 277.16814 138.4695 
L 278.467408 144.276985 
L 280.091493 152.751574 
L 282.040395 164.213606 
L 283.826888 176.025659 
L 285.77579 190.574803 
L 290.323227 225.62744 
L 291.947312 235.904347 
L 293.408988 243.706518 
L 294.870664 250.24508 
L 296.332341 255.699371 
L 297.794017 260.256795 
L 299.255693 264.08476 
L 300.71737 267.322624 
L 302.341454 270.363815 
L 303.965539 272.93518 
L 305.752032 275.331288 
L 307.538526 277.365323 
L 309.487427 279.254902 
L 311.598738 280.992561 
L 313.872456 282.578199 
L 316.470992 284.104524 
L 319.231936 285.464422 
L 322.317697 286.73602 
L 325.890684 287.955846 
L 329.950895 289.091637 
L 334.498333 290.126143 
L 339.857813 291.106672 
L 346.029335 292.00228 
L 353.337716 292.831661 
L 362.107774 293.595262 
L 372.826733 294.294954 
L 385.98182 294.922127 
L 398.487273 295.362366 
L 398.487273 295.362366 
" style="fill:none;stroke:#2ca02c;stroke-linecap:square;stroke-width:1.5;"/>
   </g>
   <g id="line2d_34">
    <path clip-path="url(#pca02be3f06)" d="M 73.832727 295.221687 
L 89.099124 294.581767 
L 100.954943 293.871002 
L 110.374635 293.090991 
L 118.007833 292.242126 
L 124.341764 291.316698 
L 129.538835 290.339194 
L 133.923864 289.297098 
L 137.659259 288.191661 
L 140.907428 287.008505 
L 143.830781 285.706147 
L 146.429316 284.296683 
L 148.703035 282.806872 
L 150.814345 281.143146 
L 152.600839 279.463808 
L 154.387332 277.465804 
L 156.011417 275.299272 
L 157.473093 272.99179 
L 158.934769 270.265699 
L 160.396445 267.030561 
L 161.858122 263.190722 
L 163.319798 258.667284 
L 164.943883 252.822667 
L 167.055193 244.246854 
L 170.140954 231.759561 
L 175.175617 212.54308 
L 176.637293 205.224409 
L 178.423786 194.956857 
L 181.834364 175.042197 
L 183.133632 168.893746 
L 184.270492 164.611637 
L 185.244942 161.835248 
L 186.056985 160.177963 
L 186.706619 159.295908 
L 187.356253 158.820704 
L 187.843478 158.736975 
L 188.330704 158.88826 
L 188.817929 159.271009 
L 189.467563 160.123909 
L 190.279605 161.677811 
L 191.254056 164.08417 
L 195.476677 175.300013 
L 196.613536 177.501156 
L 197.750395 179.225173 
L 198.724846 180.297412 
L 199.536888 180.880116 
L 200.186522 181.125853 
L 200.836156 181.159607 
L 201.48579 180.962773 
L 202.135424 180.51256 
L 202.785058 179.782885 
L 203.434692 178.746972 
L 204.246734 176.985973 
L 205.058777 174.680336 
L 206.033228 171.193484 
L 207.170087 166.215982 
L 208.794172 157.869436 
L 211.879933 141.748382 
L 213.179201 136.248754 
L 214.31606 132.313171 
L 215.452919 129.100201 
L 216.752187 126.089902 
L 218.213863 123.276636 
L 219.67554 120.934944 
L 220.812399 119.466163 
L 221.78685 118.523646 
L 222.598892 118.022249 
L 223.248526 117.844114 
L 223.89816 117.891893 
L 224.547794 118.188228 
L 225.197428 118.751242 
L 225.847062 119.592686 
L 226.659104 121.040118 
L 227.633555 123.331971 
L 228.770414 126.663991 
L 230.394499 132.24169 
L 233.48026 142.975099 
L 234.779528 146.661134 
L 235.916387 149.235558 
L 236.890838 150.92334 
L 237.865289 152.143772 
L 238.677331 152.834918 
L 239.489374 153.272059 
L 240.463825 153.526513 
L 241.438276 153.549071 
L 242.412726 153.3675 
L 243.387177 152.965457 
L 244.361628 152.310211 
L 245.336079 151.395043 
L 246.635347 149.859397 
L 249.233882 146.701583 
L 250.208333 145.86918 
L 251.020376 145.445439 
L 251.67001 145.318108 
L 252.319643 145.401279 
L 252.969277 145.711951 
L 253.618911 146.263241 
L 254.430954 147.301966 
L 255.242996 148.725704 
L 256.217447 150.895884 
L 257.679123 154.809028 
L 259.628025 160.052616 
L 260.602476 162.092343 
L 261.414518 163.284848 
L 262.064152 163.856802 
L 262.551378 164.055027 
L 263.038603 164.059221 
L 263.525828 163.879868 
L 264.175462 163.385086 
L 264.987505 162.437843 
L 266.611589 160.038941 
L 267.58604 158.770935 
L 268.235674 158.190863 
L 268.885308 157.909208 
L 269.372534 157.923389 
L 269.859759 158.142283 
L 270.509393 158.751665 
L 271.159027 159.700577 
L 271.971069 161.290188 
L 273.270337 164.452576 
L 276.031281 171.363013 
L 277.330549 173.905575 
L 278.467408 175.656045 
L 279.604268 177.029597 
L 280.903535 178.262079 
L 283.014846 179.902168 
L 286.750241 182.595788 
L 288.049508 183.208521 
L 290.160819 184.124115 
L 290.972861 184.811116 
L 291.622495 185.644374 
L 292.272129 186.791477 
L 293.084171 188.71563 
L 294.058622 191.75118 
L 295.195481 196.187622 
L 296.657158 202.9619 
L 298.606059 213.148638 
L 304.777582 246.252256 
L 306.401666 253.308281 
L 307.863343 258.71687 
L 309.325019 263.281387 
L 310.786695 267.107199 
L 312.248371 270.314095 
L 313.710048 273.013758 
L 315.334133 275.533617 
L 316.958217 277.649568 
L 318.744711 279.607829 
L 320.693612 281.396699 
L 322.804922 283.015434 
L 325.078641 284.470541 
L 327.514768 285.772805 
L 330.275712 287.001251 
L 333.523882 288.190106 
L 337.096868 289.257075 
L 341.319489 290.277253 
L 346.191743 291.217437 
L 351.87604 292.08387 
L 358.697196 292.892639 
L 366.980028 293.641451 
L 377.049354 294.320861 
L 389.717215 294.942147 
L 398.487273 295.269793 
L 398.487273 295.269793 
" style="fill:none;stroke:#d62728;stroke-linecap:square;stroke-width:1.5;"/>
   </g>
   <g id="line2d_35">
    <path clip-path="url(#pca02be3f06)" d="M 73.832727 295.292917 
L 88.611899 294.667682 
L 99.980492 293.971205 
L 108.912958 293.206484 
L 116.058931 292.376779 
L 121.905636 291.478538 
L 126.777891 290.507508 
L 130.838103 289.476691 
L 134.248681 288.393271 
L 137.334442 287.178415 
L 139.932977 285.922807 
L 142.206696 284.593189 
L 144.318006 283.106812 
L 146.266908 281.456424 
L 148.053401 279.641519 
L 149.677486 277.671834 
L 151.139162 275.571176 
L 152.600839 273.082409 
L 154.062515 270.110738 
L 155.361783 266.969676 
L 156.661051 263.258314 
L 157.960318 258.872562 
L 159.259586 253.716768 
L 160.721262 246.932899 
L 162.345347 238.285603 
L 166.080742 217.809033 
L 167.217602 213.035389 
L 168.192052 209.886679 
L 169.004095 207.914449 
L 169.816137 206.449792 
L 170.790588 205.195459 
L 171.927447 204.152696 
L 175.013208 201.598124 
L 176.312476 200.089597 
L 177.774153 198.001314 
L 180.859914 193.42939 
L 182.159181 191.966504 
L 183.620858 190.694719 
L 187.843478 187.304075 
L 189.629971 185.845933 
L 190.604422 185.304186 
L 191.416465 185.068981 
L 192.228507 185.051364 
L 193.040549 185.2495 
L 193.852592 185.65226 
L 194.827043 186.394902 
L 195.801493 187.429275 
L 196.775944 188.79061 
L 197.750395 190.525535 
L 198.887255 193.055468 
L 200.186522 196.543267 
L 203.921917 207.080901 
L 204.896368 209.044754 
L 205.708411 210.243907 
L 206.520453 211.03197 
L 207.170087 211.382999 
L 207.819721 211.514757 
L 208.631763 211.425443 
L 209.606214 211.04106 
L 210.743073 210.331872 
L 212.042341 209.240207 
L 213.179201 207.968202 
L 214.153651 206.536467 
L 215.128102 204.702938 
L 216.264962 202.012243 
L 217.726638 197.82543 
L 220.487582 189.72805 
L 221.462033 187.538449 
L 222.436484 185.898709 
L 223.248526 184.946896 
L 224.060568 184.329466 
L 224.872611 183.993294 
L 225.684653 183.887864 
L 226.659104 184.008976 
L 227.633555 184.350252 
L 228.932823 185.06272 
L 231.856175 186.791587 
L 232.668218 186.971076 
L 233.317852 186.922616 
L 233.967486 186.668402 
L 234.617119 186.183226 
L 235.266753 185.450618 
L 236.078796 184.180056 
L 237.053247 182.168096 
L 238.352514 178.871396 
L 240.626233 172.992163 
L 241.600684 171.096707 
L 242.412726 169.965986 
L 243.224769 169.236789 
L 244.036811 168.844298 
L 244.848854 168.692641 
L 246.148121 168.711592 
L 248.746657 169.019719 
L 249.883516 169.349851 
L 251.020376 169.915726 
L 253.943728 171.60655 
L 254.593362 171.689433 
L 255.242996 171.559645 
L 255.89263 171.196383 
L 256.704672 170.418267 
L 257.679123 169.081632 
L 259.303208 166.336037 
L 260.764884 164.006255 
L 261.739335 162.819371 
L 262.713786 162.00351 
L 263.688237 161.524056 
L 264.825096 161.255165 
L 267.098815 161.029852 
L 268.398083 161.032139 
L 269.210125 161.21052 
L 270.022167 161.626136 
L 270.83421 162.346338 
L 271.646252 163.402831 
L 272.620703 165.095553 
L 273.919971 167.904715 
L 277.330549 175.633429 
L 278.467408 177.597245 
L 279.604268 179.109868 
L 280.578718 180.046909 
L 281.390761 180.571027 
L 282.202803 180.844991 
L 282.852437 180.864736 
L 283.502071 180.688403 
L 284.151705 180.301975 
L 284.963747 179.51799 
L 285.938198 178.173666 
L 287.237466 175.913613 
L 289.348776 172.201433 
L 290.485636 170.632741 
L 291.784903 169.224623 
L 293.896214 167.004455 
L 295.033073 165.401767 
L 296.169932 163.402643 
L 299.905327 156.45089 
L 300.71737 155.573927 
L 301.367004 155.190164 
L 301.854229 155.114464 
L 302.341454 155.237472 
L 302.82868 155.572386 
L 303.478314 156.36696 
L 304.127948 157.574695 
L 304.93999 159.672612 
L 305.752032 162.403683 
L 306.726483 166.43382 
L 308.025751 172.80633 
L 310.461878 186.205207 
L 313.710048 203.718742 
L 319.394344 232.70487 
L 321.99288 245.099291 
L 323.779373 252.664612 
L 325.403458 258.603695 
L 326.865134 263.149101 
L 328.326811 266.994751 
L 329.788487 270.234546 
L 331.250163 272.968322 
L 332.874248 275.522117 
L 334.498333 277.666389 
L 336.284826 279.649687 
L 338.233728 281.459801 
L 340.345038 283.095984 
L 342.618757 284.565 
L 345.054884 285.877988 
L 347.815828 287.114743 
L 350.901589 288.25541 
L 354.474575 289.33575 
L 358.534787 290.32994 
L 363.407042 291.283076 
L 369.091338 292.15746 
L 375.912494 292.969687 
L 384.032918 293.705072 
L 394.102244 294.383579 
L 398.487273 294.621396 
L 398.487273 294.621396 
" style="fill:none;stroke:#9467bd;stroke-linecap:square;stroke-width:1.5;"/>
   </g>
   <g id="patch_3">
    <path d="M 57.6 307.584 
L 57.6 41.472 
" style="fill:none;stroke:#000000;stroke-linecap:square;stroke-linejoin:miter;stroke-width:0.8;"/>
   </g>
   <g id="patch_4">
    <path d="M 414.72 307.584 
L 414.72 41.472 
" style="fill:none;stroke:#000000;stroke-linecap:square;stroke-linejoin:miter;stroke-width:0.8;"/>
   </g>
   <g id="patch_5">
    <path d="M 57.6 307.584 
L 414.72 307.584 
" style="fill:none;stroke:#000000;stroke-linecap:square;stroke-linejoin:miter;stroke-width:0.8;"/>
   </g>
   <g id="patch_6">
    <path d="M 57.6 41.472 
L 414.72 41.472 
" style="fill:none;stroke:#000000;stroke-linecap:square;stroke-linejoin:miter;stroke-width:0.8;"/>
   </g>
   <g id="text_32">
    <!-- Density of States -->
    <defs>
     <path d="M 19.671875 64.796875 
L 19.671875 8.109375 
L 31.59375 8.109375 
Q 46.6875 8.109375 53.6875 14.9375 
Q 60.6875 21.78125 60.6875 36.53125 
Q 60.6875 51.171875 53.6875 57.984375 
Q 46.6875 64.796875 31.59375 64.796875 
z
M 9.8125 72.90625 
L 30.078125 72.90625 
Q 51.265625 72.90625 61.171875 64.09375 
Q 71.09375 55.28125 71.09375 36.53125 
Q 71.09375 17.671875 61.125 8.828125 
Q 51.171875 0 30.078125 0 
L 9.8125 0 
z
" id="DejaVuSans-68"/>
     <path d="M 56.203125 29.59375 
L 56.203125 25.203125 
L 14.890625 25.203125 
Q 15.484375 15.921875 20.484375 11.0625 
Q 25.484375 6.203125 34.421875 6.203125 
Q 39.59375 6.203125 44.453125 7.46875 
Q 49.3125 8.734375 54.109375 11.28125 
L 54.109375 2.78125 
Q 49.265625 0.734375 44.1875 -0.34375 
Q 39.109375 -1.421875 33.890625 -1.421875 
Q 20.796875 -1.421875 13.15625 6.1875 
Q 5.515625 13.8125 5.515625 26.8125 
Q 5.515625 40.234375 12.765625 48.109375 
Q 20.015625 56 32.328125 56 
Q 43.359375 56 49.78125 48.890625 
Q 56.203125 41.796875 56.203125 29.59375 
z
M 47.21875 32.234375 
Q 47.125 39.59375 43.09375 43.984375 
Q 39.0625 48.390625 32.421875 48.390625 
Q 24.90625 48.390625 20.390625 44.140625 
Q 15.875 39.890625 15.1875 32.171875 
z
" id="DejaVuSans-101"/>
     <path d="M 54.890625 33.015625 
L 54.890625 0 
L 45.90625 0 
L 45.90625 32.71875 
Q 45.90625 40.484375 42.875 44.328125 
Q 39.84375 48.1875 33.796875 48.1875 
Q 26.515625 48.1875 22.3125 43.546875 
Q 18.109375 38.921875 18.109375 30.90625 
L 18.109375 0 
L 9.078125 0 
L 9.078125 54.6875 
L 18.109375 54.6875 
L 18.109375 46.1875 
Q 21.34375 51.125 25.703125 53.5625 
Q 30.078125 56 35.796875 56 
Q 45.21875 56 50.046875 50.171875 
Q 54.890625 44.34375 54.890625 33.015625 
z
" id="DejaVuSans-110"/>
     <path d="M 44.28125 53.078125 
L 44.28125 44.578125 
Q 40.484375 46.53125 36.375 47.5 
Q 32.28125 48.484375 27.875 48.484375 
Q 21.1875 48.484375 17.84375 46.4375 
Q 14.5 44.390625 14.5 40.28125 
Q 14.5 37.15625 16.890625 35.375 
Q 19.28125 33.59375 26.515625 31.984375 
L 29.59375 31.296875 
Q 39.15625 29.25 43.1875 25.515625 
Q 47.21875 21.78125 47.21875 15.09375 
Q 47.21875 7.46875 41.1875 3.015625 
Q 35.15625 -1.421875 24.609375 -1.421875 
Q 20.21875 -1.421875 15.453125 -0.5625 
Q 10.6875 0.296875 5.421875 2 
L 5.421875 11.28125 
Q 10.40625 8.6875 15.234375 7.390625 
Q 20.0625 6.109375 24.8125 6.109375 
Q 31.15625 6.109375 34.5625 8.28125 
Q 37.984375 10.453125 37.984375 14.40625 
Q 37.984375 18.0625 35.515625 20.015625 
Q 33.0625 21.96875 24.703125 23.78125 
L 21.578125 24.515625 
Q 13.234375 26.265625 9.515625 29.90625 
Q 5.8125 33.546875 5.8125 39.890625 
Q 5.8125 47.609375 11.28125 51.796875 
Q 16.75 56 26.8125 56 
Q 31.78125 56 36.171875 55.265625 
Q 40.578125 54.546875 44.28125 53.078125 
z
" id="DejaVuSans-115"/>
     <path d="M 9.421875 54.6875 
L 18.40625 54.6875 
L 18.40625 0 
L 9.421875 0 
z
M 9.421875 75.984375 
L 18.40625 75.984375 
L 18.40625 64.59375 
L 9.421875 64.59375 
z
" id="DejaVuSans-105"/>
     <path d="M 18.3125 70.21875 
L 18.3125 54.6875 
L 36.8125 54.6875 
L 36.8125 47.703125 
L 18.3125 47.703125 
L 18.3125 18.015625 
Q 18.3125 11.328125 20.140625 9.421875 
Q 21.96875 7.515625 27.59375 7.515625 
L 36.8125 7.515625 
L 36.8125 0 
L 27.59375 0 
Q 17.1875 0 13.234375 3.875 
Q 9.28125 7.765625 9.28125 18.015625 
L 9.28125 47.703125 
L 2.6875 47.703125 
L 2.6875 54.6875 
L 9.28125 54.6875 
L 9.28125 70.21875 
z
" id="DejaVuSans-116"/>
     <path d="M 32.171875 -5.078125 
Q 28.375 -14.84375 24.75 -17.8125 
Q 21.140625 -20.796875 15.09375 -20.796875 
L 7.90625 -20.796875 
L 7.90625 -13.28125 
L 13.1875 -13.28125 
Q 16.890625 -13.28125 18.9375 -11.515625 
Q 21 -9.765625 23.484375 -3.21875 
L 25.09375 0.875 
L 2.984375 54.6875 
L 12.5 54.6875 
L 29.59375 11.921875 
L 46.6875 54.6875 
L 56.203125 54.6875 
z
" id="DejaVuSans-121"/>
     <path id="DejaVuSans-32"/>
     <path d="M 30.609375 48.390625 
Q 23.390625 48.390625 19.1875 42.75 
Q 14.984375 37.109375 14.984375 27.296875 
Q 14.984375 17.484375 19.15625 11.84375 
Q 23.34375 6.203125 30.609375 6.203125 
Q 37.796875 6.203125 41.984375 11.859375 
Q 46.1875 17.53125 46.1875 27.296875 
Q 46.1875 37.015625 41.984375 42.703125 
Q 37.796875 48.390625 30.609375 48.390625 
z
M 30.609375 56 
Q 42.328125 56 49.015625 48.375 
Q 55.71875 40.765625 55.71875 27.296875 
Q 55.71875 13.875 49.015625 6.21875 
Q 42.328125 -1.421875 30.609375 -1.421875 
Q 18.84375 -1.421875 12.171875 6.21875 
Q 5.515625 13.875 5.515625 27.296875 
Q 5.515625 40.765625 12.171875 48.375 
Q 18.84375 56 30.609375 56 
z
" id="DejaVuSans-111"/>
     <path d="M 37.109375 75.984375 
L 37.109375 68.5 
L 28.515625 68.5 
Q 23.6875 68.5 21.796875 66.546875 
Q 19.921875 64.59375 19.921875 59.515625 
L 19.921875 54.6875 
L 34.71875 54.6875 
L 34.71875 47.703125 
L 19.921875 47.703125 
L 19.921875 0 
L 10.890625 0 
L 10.890625 47.703125 
L 2.296875 47.703125 
L 2.296875 54.6875 
L 10.890625 54.6875 
L 10.890625 58.5 
Q 10.890625 67.625 15.140625 71.796875 
Q 19.390625 75.984375 28.609375 75.984375 
z
" id="DejaVuSans-102"/>
     <path d="M 53.515625 70.515625 
L 53.515625 60.890625 
Q 47.90625 63.578125 42.921875 64.890625 
Q 37.9375 66.21875 33.296875 66.21875 
Q 25.25 66.21875 20.875 63.09375 
Q 16.5 59.96875 16.5 54.203125 
Q 16.5 49.359375 19.40625 46.890625 
Q 22.3125 44.4375 30.421875 42.921875 
L 36.375 41.703125 
Q 47.40625 39.59375 52.65625 34.296875 
Q 57.90625 29 57.90625 20.125 
Q 57.90625 9.515625 50.796875 4.046875 
Q 43.703125 -1.421875 29.984375 -1.421875 
Q 24.8125 -1.421875 18.96875 -0.25 
Q 13.140625 0.921875 6.890625 3.21875 
L 6.890625 13.375 
Q 12.890625 10.015625 18.65625 8.296875 
Q 24.421875 6.59375 29.984375 6.59375 
Q 38.421875 6.59375 43.015625 9.90625 
Q 47.609375 13.234375 47.609375 19.390625 
Q 47.609375 24.75 44.3125 27.78125 
Q 41.015625 30.8125 33.5 32.328125 
L 27.484375 33.5 
Q 16.453125 35.6875 11.515625 40.375 
Q 6.59375 45.0625 6.59375 53.421875 
Q 6.59375 63.09375 13.40625 68.65625 
Q 20.21875 74.21875 32.171875 74.21875 
Q 37.3125 74.21875 42.625 73.28125 
Q 47.953125 72.359375 53.515625 70.515625 
z
" id="DejaVuSans-83"/>
     <path d="M 34.28125 27.484375 
Q 23.390625 27.484375 19.1875 25 
Q 14.984375 22.515625 14.984375 16.5 
Q 14.984375 11.71875 18.140625 8.90625 
Q 21.296875 6.109375 26.703125 6.109375 
Q 34.1875 6.109375 38.703125 11.40625 
Q 43.21875 16.703125 43.21875 25.484375 
L 43.21875 27.484375 
z
M 52.203125 31.203125 
L 52.203125 0 
L 43.21875 0 
L 43.21875 8.296875 
Q 40.140625 3.328125 35.546875 0.953125 
Q 30.953125 -1.421875 24.3125 -1.421875 
Q 15.921875 -1.421875 10.953125 3.296875 
Q 6 8.015625 6 15.921875 
Q 6 25.140625 12.171875 29.828125 
Q 18.359375 34.515625 30.609375 34.515625 
L 43.21875 34.515625 
L 43.21875 35.40625 
Q 43.21875 41.609375 39.140625 45 
Q 35.0625 48.390625 27.6875 48.390625 
Q 23 48.390625 18.546875 47.265625 
Q 14.109375 46.140625 10.015625 43.890625 
L 10.015625 52.203125 
Q 14.9375 54.109375 19.578125 55.046875 
Q 24.21875 56 28.609375 56 
Q 40.484375 56 46.34375 49.84375 
Q 52.203125 43.703125 52.203125 31.203125 
z
" id="DejaVuSans-97"/>
    </defs>
    <g transform="translate(184.744687 35.472)scale(0.12 -0.12)">
     <use xlink:href="#DejaVuSans-68"/>
     <use x="77.001953" xlink:href="#DejaVuSans-101"/>
     <use x="138.525391" xlink:href="#DejaVuSans-110"/>
     <use x="201.904297" xlink:href="#DejaVuSans-115"/>
     <use x="254.003906" xlink:href="#DejaVuSans-105"/>
     <use x="281.787109" xlink:href="#DejaVuSans-116"/>
     <use x="320.996094" xlink:href="#DejaVuSans-121"/>
     <use x="380.175781" xlink:href="#DejaVuSans-32"/>
     <use x="411.962891" xlink:href="#DejaVuSans-111"/>
     <use x="473.144531" xlink:href="#DejaVuSans-102"/>
     <use x="508.349609" xlink:href="#DejaVuSans-32"/>
     <use x="540.136719" xlink:href="#DejaVuSans-83"/>
     <use x="603.613281" xlink:href="#DejaVuSans-116"/>
     <use x="642.822266" xlink:href="#DejaVuSans-97"/>
     <use x="704.101562" xlink:href="#DejaVuSans-116"/>
     <use x="743.310547" xlink:href="#DejaVuSans-101"/>
     <use x="804.833984" xlink:href="#DejaVuSans-115"/>
    </g>
   </g>
   <g id="legend_1">
    <g id="patch_7">
     <path d="M 344.734063 122.862625 
L 407.72 122.862625 
Q 409.72 122.862625 409.72 120.862625 
L 409.72 48.472 
Q 409.72 46.472 407.72 46.472 
L 344.734063 46.472 
Q 342.734063 46.472 342.734063 48.472 
L 342.734063 120.862625 
Q 342.734063 122.862625 344.734063 122.862625 
z
" style="fill:#ffffff;opacity:0.8;stroke:#cccccc;stroke-linejoin:miter;"/>
    </g>
    <g id="line2d_36">
     <path d="M 346.734063 54.570438 
L 366.734063 54.570438 
" style="fill:none;stroke:#1f77b4;stroke-linecap:square;stroke-width:1.5;"/>
    </g>
    <g id="line2d_37"/>
    <g id="text_33">
     <!-- W = 0 -->
     <defs>
      <path d="M 3.328125 72.90625 
L 13.28125 72.90625 
L 28.609375 11.28125 
L 43.890625 72.90625 
L 54.984375 72.90625 
L 70.3125 11.28125 
L 85.59375 72.90625 
L 95.609375 72.90625 
L 77.296875 0 
L 64.890625 0 
L 49.515625 63.28125 
L 33.984375 0 
L 21.578125 0 
z
" id="DejaVuSans-87"/>
      <path d="M 10.59375 45.40625 
L 73.1875 45.40625 
L 73.1875 37.203125 
L 10.59375 37.203125 
z
M 10.59375 25.484375 
L 73.1875 25.484375 
L 73.1875 17.1875 
L 10.59375 17.1875 
z
" id="DejaVuSans-61"/>
     </defs>
     <g transform="translate(374.734063 58.070438)scale(0.1 -0.1)">
      <use xlink:href="#DejaVuSans-87"/>
      <use x="98.876953" xlink:href="#DejaVuSans-32"/>
      <use x="130.664062" xlink:href="#DejaVuSans-61"/>
      <use x="214.453125" xlink:href="#DejaVuSans-32"/>
      <use x="246.240234" xlink:href="#DejaVuSans-48"/>
     </g>
    </g>
    <g id="line2d_38">
     <path d="M 346.734063 69.248563 
L 366.734063 69.248563 
" style="fill:none;stroke:#ff7f0e;stroke-linecap:square;stroke-width:1.5;"/>
    </g>
    <g id="line2d_39"/>
    <g id="text_34">
     <!-- W = 2 -->
     <g transform="translate(374.734063 72.748563)scale(0.1 -0.1)">
      <use xlink:href="#DejaVuSans-87"/>
      <use x="98.876953" xlink:href="#DejaVuSans-32"/>
      <use x="130.664062" xlink:href="#DejaVuSans-61"/>
      <use x="214.453125" xlink:href="#DejaVuSans-32"/>
      <use x="246.240234" xlink:href="#DejaVuSans-50"/>
     </g>
    </g>
    <g id="line2d_40">
     <path d="M 346.734063 83.926688 
L 366.734063 83.926688 
" style="fill:none;stroke:#2ca02c;stroke-linecap:square;stroke-width:1.5;"/>
    </g>
    <g id="line2d_41"/>
    <g id="text_35">
     <!-- W = 4 -->
     <g transform="translate(374.734063 87.426688)scale(0.1 -0.1)">
      <use xlink:href="#DejaVuSans-87"/>
      <use x="98.876953" xlink:href="#DejaVuSans-32"/>
      <use x="130.664062" xlink:href="#DejaVuSans-61"/>
      <use x="214.453125" xlink:href="#DejaVuSans-32"/>
      <use x="246.240234" xlink:href="#DejaVuSans-52"/>
     </g>
    </g>
    <g id="line2d_42">
     <path d="M 346.734063 98.604813 
L 366.734063 98.604813 
" style="fill:none;stroke:#d62728;stroke-linecap:square;stroke-width:1.5;"/>
    </g>
    <g id="line2d_43"/>
    <g id="text_36">
     <!-- W = 6 -->
     <g transform="translate(374.734063 102.104813)scale(0.1 -0.1)">
      <use xlink:href="#DejaVuSans-87"/>
      <use x="98.876953" xlink:href="#DejaVuSans-32"/>
      <use x="130.664062" xlink:href="#DejaVuSans-61"/>
      <use x="214.453125" xlink:href="#DejaVuSans-32"/>
      <use x="246.240234" xlink:href="#DejaVuSans-54"/>
     </g>
    </g>
    <g id="line2d_44">
     <path d="M 346.734063 113.282938 
L 366.734063 113.282938 
" style="fill:none;stroke:#9467bd;stroke-linecap:square;stroke-width:1.5;"/>
    </g>
    <g id="line2d_45"/>
    <g id="text_37">
     <!-- W = 8 -->
     <g transform="translate(374.734063 116.782938)scale(0.1 -0.1)">
      <use xlink:href="#DejaVuSans-87"/>
      <use x="98.876953" xlink:href="#DejaVuSans-32"/>
      <use x="130.664062" xlink:href="#DejaVuSans-61"/>
      <use x="214.453125" xlink:href="#DejaVuSans-32"/>
      <use x="246.240234" xlink:href="#DejaVuSans-56"/>
     </g>
    </g>
   </g>
  </g>
 </g>
 <defs>
  <clipPath id="pca02be3f06">
   <rect height="266.112" width="357.12" x="57.6" y="41.472"/>
  </clipPath>
 </defs>
</svg>
