<?xml version="1.0" encoding="utf-8" standalone="no"?>
<!DOCTYPE svg PUBLIC "-//W3C//DTD SVG 1.1//EN"
  "http://www.w3.org/Graphics/SVG/1.1/DTD/svg11.dtd">
<!-- Created with matplotlib (https://matplotlib.org/) -->
<svg height="345.6pt" version="1.1" viewBox="0 0 460.8 345.6" width="460.8pt" xmlns="http://www.w3.org/2000/svg" xmlns:xlink="http://www.w3.org/1999/xlink">
 <defs>
  <style type="text/css">
*{stroke-linecap:butt;stroke-linejoin:round;}
  </style>
 </defs>
 <g id="figure_1">
  <g id="patch_1">
   <path d="M 0 345.6 
L 460.8 345.6 
L 460.8 0 
L 0 0 
z
" style="fill:#ffffff;"/>
  </g>
  <g id="axes_1">
   <g id="patch_2">
    <path d="M 57.6 307.584 
L 414.72 307.584 
L 414.72 41.472 
L 57.6 41.472 
z
" style="fill:#ffffff;"/>
   </g>
   <g id="matplotlib.axis_1">
    <g id="xtick_1">
     <g id="line2d_1">
      <defs>
       <path d="M 0 0 
L 0 3.5 
" id="m8f76523642" style="stroke:#000000;stroke-width:0.8;"/>
      </defs>
      <g>
       <use style="stroke:#000000;stroke-width:0.8;" x="73.832727" xlink:href="#m8f76523642" y="307.584"/>
      </g>
     </g>
     <g id="text_1">
      <!-- -10 -->
      <defs>
       <path d="M 4.890625 31.390625 
L 31.203125 31.390625 
L 31.203125 23.390625 
L 4.890625 23.390625 
z
" id="DejaVuSans-45"/>
       <path d="M 12.40625 8.296875 
L 28.515625 8.296875 
L 28.515625 63.921875 
L 10.984375 60.40625 
L 10.984375 69.390625 
L 28.421875 72.90625 
L 38.28125 72.90625 
L 38.28125 8.296875 
L 54.390625 8.296875 
L 54.390625 0 
L 12.40625 0 
z
" id="DejaVuSans-49"/>
       <path d="M 31.78125 66.40625 
Q 24.171875 66.40625 20.328125 58.90625 
Q 16.5 51.421875 16.5 36.375 
Q 16.5 21.390625 20.328125 13.890625 
Q 24.171875 6.390625 31.78125 6.390625 
Q 39.453125 6.390625 43.28125 13.890625 
Q 47.125 21.390625 47.125 36.375 
Q 47.125 51.421875 43.28125 58.90625 
Q 39.453125 66.40625 31.78125 66.40625 
z
M 31.78125 74.21875 
Q 44.046875 74.21875 50.515625 64.515625 
Q 56.984375 54.828125 56.984375 36.375 
Q 56.984375 17.96875 50.515625 8.265625 
Q 44.046875 -1.421875 31.78125 -1.421875 
Q 19.53125 -1.421875 13.0625 8.265625 
Q 6.59375 17.96875 6.59375 36.375 
Q 6.59375 54.828125 13.0625 64.515625 
Q 19.53125 74.21875 31.78125 74.21875 
z
" id="DejaVuSans-48"/>
      </defs>
      <g transform="translate(65.666321 322.182437)scale(0.1 -0.1)">
       <use xlink:href="#DejaVuSans-45"/>
       <use x="36.083984" xlink:href="#DejaVuSans-49"/>
       <use x="99.707031" xlink:href="#DejaVuSans-48"/>
      </g>
     </g>
    </g>
    <g id="xtick_2">
     <g id="line2d_2">
      <g>
       <use style="stroke:#000000;stroke-width:0.8;" x="90.073575" xlink:href="#m8f76523642" y="307.584"/>
      </g>
     </g>
     <g id="text_2">
      <!-- -9 -->
      <defs>
       <path d="M 10.984375 1.515625 
L 10.984375 10.5 
Q 14.703125 8.734375 18.5 7.8125 
Q 22.3125 6.890625 25.984375 6.890625 
Q 35.75 6.890625 40.890625 13.453125 
Q 46.046875 20.015625 46.78125 33.40625 
Q 43.953125 29.203125 39.59375 26.953125 
Q 35.25 24.703125 29.984375 24.703125 
Q 19.046875 24.703125 12.671875 31.3125 
Q 6.296875 37.9375 6.296875 49.421875 
Q 6.296875 60.640625 12.9375 67.421875 
Q 19.578125 74.21875 30.609375 74.21875 
Q 43.265625 74.21875 49.921875 64.515625 
Q 56.59375 54.828125 56.59375 36.375 
Q 56.59375 19.140625 48.40625 8.859375 
Q 40.234375 -1.421875 26.421875 -1.421875 
Q 22.703125 -1.421875 18.890625 -0.6875 
Q 15.09375 0.046875 10.984375 1.515625 
z
M 30.609375 32.421875 
Q 37.25 32.421875 41.125 36.953125 
Q 45.015625 41.5 45.015625 49.421875 
Q 45.015625 57.28125 41.125 61.84375 
Q 37.25 66.40625 30.609375 66.40625 
Q 23.96875 66.40625 20.09375 61.84375 
Q 16.21875 57.28125 16.21875 49.421875 
Q 16.21875 41.5 20.09375 36.953125 
Q 23.96875 32.421875 30.609375 32.421875 
z
" id="DejaVuSans-57"/>
      </defs>
      <g transform="translate(85.088419 322.182437)scale(0.1 -0.1)">
       <use xlink:href="#DejaVuSans-45"/>
       <use x="36.083984" xlink:href="#DejaVuSans-57"/>
      </g>
     </g>
    </g>
    <g id="xtick_3">
     <g id="line2d_3">
      <g>
       <use style="stroke:#000000;stroke-width:0.8;" x="106.314423" xlink:href="#m8f76523642" y="307.584"/>
      </g>
     </g>
     <g id="text_3">
      <!-- -8 -->
      <defs>
       <path d="M 31.78125 34.625 
Q 24.75 34.625 20.71875 30.859375 
Q 16.703125 27.09375 16.703125 20.515625 
Q 16.703125 13.921875 20.71875 10.15625 
Q 24.75 6.390625 31.78125 6.390625 
Q 38.8125 6.390625 42.859375 10.171875 
Q 46.921875 13.96875 46.921875 20.515625 
Q 46.921875 27.09375 42.890625 30.859375 
Q 38.875 34.625 31.78125 34.625 
z
M 21.921875 38.8125 
Q 15.578125 40.375 12.03125 44.71875 
Q 8.5 49.078125 8.5 55.328125 
Q 8.5 64.0625 14.71875 69.140625 
Q 20.953125 74.21875 31.78125 74.21875 
Q 42.671875 74.21875 48.875 69.140625 
Q 55.078125 64.0625 55.078125 55.328125 
Q 55.078125 49.078125 51.53125 44.71875 
Q 48 40.375 41.703125 38.8125 
Q 48.828125 37.15625 52.796875 32.3125 
Q 56.78125 27.484375 56.78125 20.515625 
Q 56.78125 9.90625 50.3125 4.234375 
Q 43.84375 -1.421875 31.78125 -1.421875 
Q 19.734375 -1.421875 13.25 4.234375 
Q 6.78125 9.90625 6.78125 20.515625 
Q 6.78125 27.484375 10.78125 32.3125 
Q 14.796875 37.15625 21.921875 38.8125 
z
M 18.3125 54.390625 
Q 18.3125 48.734375 21.84375 45.5625 
Q 25.390625 42.390625 31.78125 42.390625 
Q 38.140625 42.390625 41.71875 45.5625 
Q 45.3125 48.734375 45.3125 54.390625 
Q 45.3125 60.0625 41.71875 63.234375 
Q 38.140625 66.40625 31.78125 66.40625 
Q 25.390625 66.40625 21.84375 63.234375 
Q 18.3125 60.0625 18.3125 54.390625 
z
" id="DejaVuSans-56"/>
      </defs>
      <g transform="translate(101.329266 322.182437)scale(0.1 -0.1)">
       <use xlink:href="#DejaVuSans-45"/>
       <use x="36.083984" xlink:href="#DejaVuSans-56"/>
      </g>
     </g>
    </g>
    <g id="xtick_4">
     <g id="line2d_4">
      <g>
       <use style="stroke:#000000;stroke-width:0.8;" x="122.55527" xlink:href="#m8f76523642" y="307.584"/>
      </g>
     </g>
     <g id="text_4">
      <!-- -7 -->
      <defs>
       <path d="M 8.203125 72.90625 
L 55.078125 72.90625 
L 55.078125 68.703125 
L 28.609375 0 
L 18.3125 0 
L 43.21875 64.59375 
L 8.203125 64.59375 
z
" id="DejaVuSans-55"/>
      </defs>
      <g transform="translate(117.570114 322.182437)scale(0.1 -0.1)">
       <use xlink:href="#DejaVuSans-45"/>
       <use x="36.083984" xlink:href="#DejaVuSans-55"/>
      </g>
     </g>
    </g>
    <g id="xtick_5">
     <g id="line2d_5">
      <g>
       <use style="stroke:#000000;stroke-width:0.8;" x="138.796118" xlink:href="#m8f76523642" y="307.584"/>
      </g>
     </g>
     <g id="text_5">
      <!-- -6 -->
      <defs>
       <path d="M 33.015625 40.375 
Q 26.375 40.375 22.484375 35.828125 
Q 18.609375 31.296875 18.609375 23.390625 
Q 18.609375 15.53125 22.484375 10.953125 
Q 26.375 6.390625 33.015625 6.390625 
Q 39.65625 6.390625 43.53125 10.953125 
Q 47.40625 15.53125 47.40625 23.390625 
Q 47.40625 31.296875 43.53125 35.828125 
Q 39.65625 40.375 33.015625 40.375 
z
M 52.59375 71.296875 
L 52.59375 62.3125 
Q 48.875 64.0625 45.09375 64.984375 
Q 41.3125 65.921875 37.59375 65.921875 
Q 27.828125 65.921875 22.671875 59.328125 
Q 17.53125 52.734375 16.796875 39.40625 
Q 19.671875 43.65625 24.015625 45.921875 
Q 28.375 48.1875 33.59375 48.1875 
Q 44.578125 48.1875 50.953125 41.515625 
Q 57.328125 34.859375 57.328125 23.390625 
Q 57.328125 12.15625 50.6875 5.359375 
Q 44.046875 -1.421875 33.015625 -1.421875 
Q 20.359375 -1.421875 13.671875 8.265625 
Q 6.984375 17.96875 6.984375 36.375 
Q 6.984375 53.65625 15.1875 63.9375 
Q 23.390625 74.21875 37.203125 74.21875 
Q 40.921875 74.21875 44.703125 73.484375 
Q 48.484375 72.75 52.59375 71.296875 
z
" id="DejaVuSans-54"/>
      </defs>
      <g transform="translate(133.810962 322.182437)scale(0.1 -0.1)">
       <use xlink:href="#DejaVuSans-45"/>
       <use x="36.083984" xlink:href="#DejaVuSans-54"/>
      </g>
     </g>
    </g>
    <g id="xtick_6">
     <g id="line2d_6">
      <g>
       <use style="stroke:#000000;stroke-width:0.8;" x="155.036966" xlink:href="#m8f76523642" y="307.584"/>
      </g>
     </g>
     <g id="text_6">
      <!-- -5 -->
      <defs>
       <path d="M 10.796875 72.90625 
L 49.515625 72.90625 
L 49.515625 64.59375 
L 19.828125 64.59375 
L 19.828125 46.734375 
Q 21.96875 47.46875 24.109375 47.828125 
Q 26.265625 48.1875 28.421875 48.1875 
Q 40.625 48.1875 47.75 41.5 
Q 54.890625 34.8125 54.890625 23.390625 
Q 54.890625 11.625 47.5625 5.09375 
Q 40.234375 -1.421875 26.90625 -1.421875 
Q 22.3125 -1.421875 17.546875 -0.640625 
Q 12.796875 0.140625 7.71875 1.703125 
L 7.71875 11.625 
Q 12.109375 9.234375 16.796875 8.0625 
Q 21.484375 6.890625 26.703125 6.890625 
Q 35.15625 6.890625 40.078125 11.328125 
Q 45.015625 15.765625 45.015625 23.390625 
Q 45.015625 31 40.078125 35.4375 
Q 35.15625 39.890625 26.703125 39.890625 
Q 22.75 39.890625 18.8125 39.015625 
Q 14.890625 38.140625 10.796875 36.28125 
z
" id="DejaVuSans-53"/>
      </defs>
      <g transform="translate(150.05181 322.182437)scale(0.1 -0.1)">
       <use xlink:href="#DejaVuSans-45"/>
       <use x="36.083984" xlink:href="#DejaVuSans-53"/>
      </g>
     </g>
    </g>
    <g id="xtick_7">
     <g id="line2d_7">
      <g>
       <use style="stroke:#000000;stroke-width:0.8;" x="171.277813" xlink:href="#m8f76523642" y="307.584"/>
      </g>
     </g>
     <g id="text_7">
      <!-- -4 -->
      <defs>
       <path d="M 37.796875 64.3125 
L 12.890625 25.390625 
L 37.796875 25.390625 
z
M 35.203125 72.90625 
L 47.609375 72.90625 
L 47.609375 25.390625 
L 58.015625 25.390625 
L 58.015625 17.1875 
L 47.609375 17.1875 
L 47.609375 0 
L 37.796875 0 
L 37.796875 17.1875 
L 4.890625 17.1875 
L 4.890625 26.703125 
z
" id="DejaVuSans-52"/>
      </defs>
      <g transform="translate(166.292657 322.182437)scale(0.1 -0.1)">
       <use xlink:href="#DejaVuSans-45"/>
       <use x="36.083984" xlink:href="#DejaVuSans-52"/>
      </g>
     </g>
    </g>
    <g id="xtick_8">
     <g id="line2d_8">
      <g>
       <use style="stroke:#000000;stroke-width:0.8;" x="187.518661" xlink:href="#m8f76523642" y="307.584"/>
      </g>
     </g>
     <g id="text_8">
      <!-- -3 -->
      <defs>
       <path d="M 40.578125 39.3125 
Q 47.65625 37.796875 51.625 33 
Q 55.609375 28.21875 55.609375 21.1875 
Q 55.609375 10.40625 48.1875 4.484375 
Q 40.765625 -1.421875 27.09375 -1.421875 
Q 22.515625 -1.421875 17.65625 -0.515625 
Q 12.796875 0.390625 7.625 2.203125 
L 7.625 11.71875 
Q 11.71875 9.328125 16.59375 8.109375 
Q 21.484375 6.890625 26.8125 6.890625 
Q 36.078125 6.890625 40.9375 10.546875 
Q 45.796875 14.203125 45.796875 21.1875 
Q 45.796875 27.640625 41.28125 31.265625 
Q 36.765625 34.90625 28.71875 34.90625 
L 20.21875 34.90625 
L 20.21875 43.015625 
L 29.109375 43.015625 
Q 36.375 43.015625 40.234375 45.921875 
Q 44.09375 48.828125 44.09375 54.296875 
Q 44.09375 59.90625 40.109375 62.90625 
Q 36.140625 65.921875 28.71875 65.921875 
Q 24.65625 65.921875 20.015625 65.03125 
Q 15.375 64.15625 9.8125 62.3125 
L 9.8125 71.09375 
Q 15.4375 72.65625 20.34375 73.4375 
Q 25.25 74.21875 29.59375 74.21875 
Q 40.828125 74.21875 47.359375 69.109375 
Q 53.90625 64.015625 53.90625 55.328125 
Q 53.90625 49.265625 50.4375 45.09375 
Q 46.96875 40.921875 40.578125 39.3125 
z
" id="DejaVuSans-51"/>
      </defs>
      <g transform="translate(182.533505 322.182437)scale(0.1 -0.1)">
       <use xlink:href="#DejaVuSans-45"/>
       <use x="36.083984" xlink:href="#DejaVuSans-51"/>
      </g>
     </g>
    </g>
    <g id="xtick_9">
     <g id="line2d_9">
      <g>
       <use style="stroke:#000000;stroke-width:0.8;" x="203.759509" xlink:href="#m8f76523642" y="307.584"/>
      </g>
     </g>
     <g id="text_9">
      <!-- -2 -->
      <defs>
       <path d="M 19.1875 8.296875 
L 53.609375 8.296875 
L 53.609375 0 
L 7.328125 0 
L 7.328125 8.296875 
Q 12.9375 14.109375 22.625 23.890625 
Q 32.328125 33.6875 34.8125 36.53125 
Q 39.546875 41.84375 41.421875 45.53125 
Q 43.3125 49.21875 43.3125 52.78125 
Q 43.3125 58.59375 39.234375 62.25 
Q 35.15625 65.921875 28.609375 65.921875 
Q 23.96875 65.921875 18.8125 64.3125 
Q 13.671875 62.703125 7.8125 59.421875 
L 7.8125 69.390625 
Q 13.765625 71.78125 18.9375 73 
Q 24.125 74.21875 28.421875 74.21875 
Q 39.75 74.21875 46.484375 68.546875 
Q 53.21875 62.890625 53.21875 53.421875 
Q 53.21875 48.921875 51.53125 44.890625 
Q 49.859375 40.875 45.40625 35.40625 
Q 44.1875 33.984375 37.640625 27.21875 
Q 31.109375 20.453125 19.1875 8.296875 
z
" id="DejaVuSans-50"/>
      </defs>
      <g transform="translate(198.774353 322.182437)scale(0.1 -0.1)">
       <use xlink:href="#DejaVuSans-45"/>
       <use x="36.083984" xlink:href="#DejaVuSans-50"/>
      </g>
     </g>
    </g>
    <g id="xtick_10">
     <g id="line2d_10">
      <g>
       <use style="stroke:#000000;stroke-width:0.8;" x="220.000357" xlink:href="#m8f76523642" y="307.584"/>
      </g>
     </g>
     <g id="text_10">
      <!-- -1 -->
      <g transform="translate(215.0152 322.182437)scale(0.1 -0.1)">
       <use xlink:href="#DejaVuSans-45"/>
       <use x="36.083984" xlink:href="#DejaVuSans-49"/>
      </g>
     </g>
    </g>
    <g id="xtick_11">
     <g id="line2d_11">
      <g>
       <use style="stroke:#000000;stroke-width:0.8;" x="236.241204" xlink:href="#m8f76523642" y="307.584"/>
      </g>
     </g>
     <g id="text_11">
      <!-- 0 -->
      <g transform="translate(233.059954 322.182437)scale(0.1 -0.1)">
       <use xlink:href="#DejaVuSans-48"/>
      </g>
     </g>
    </g>
    <g id="xtick_12">
     <g id="line2d_12">
      <g>
       <use style="stroke:#000000;stroke-width:0.8;" x="252.482052" xlink:href="#m8f76523642" y="307.584"/>
      </g>
     </g>
     <g id="text_12">
      <!-- 1 -->
      <g transform="translate(249.300802 322.182437)scale(0.1 -0.1)">
       <use xlink:href="#DejaVuSans-49"/>
      </g>
     </g>
    </g>
    <g id="xtick_13">
     <g id="line2d_13">
      <g>
       <use style="stroke:#000000;stroke-width:0.8;" x="268.7229" xlink:href="#m8f76523642" y="307.584"/>
      </g>
     </g>
     <g id="text_13">
      <!-- 2 -->
      <g transform="translate(265.54165 322.182437)scale(0.1 -0.1)">
       <use xlink:href="#DejaVuSans-50"/>
      </g>
     </g>
    </g>
    <g id="xtick_14">
     <g id="line2d_14">
      <g>
       <use style="stroke:#000000;stroke-width:0.8;" x="284.963747" xlink:href="#m8f76523642" y="307.584"/>
      </g>
     </g>
     <g id="text_14">
      <!-- 3 -->
      <g transform="translate(281.782497 322.182437)scale(0.1 -0.1)">
       <use xlink:href="#DejaVuSans-51"/>
      </g>
     </g>
    </g>
    <g id="xtick_15">
     <g id="line2d_15">
      <g>
       <use style="stroke:#000000;stroke-width:0.8;" x="301.204595" xlink:href="#m8f76523642" y="307.584"/>
      </g>
     </g>
     <g id="text_15">
      <!-- 4 -->
      <g transform="translate(298.023345 322.182437)scale(0.1 -0.1)">
       <use xlink:href="#DejaVuSans-52"/>
      </g>
     </g>
    </g>
    <g id="xtick_16">
     <g id="line2d_16">
      <g>
       <use style="stroke:#000000;stroke-width:0.8;" x="317.445443" xlink:href="#m8f76523642" y="307.584"/>
      </g>
     </g>
     <g id="text_16">
      <!-- 5 -->
      <g transform="translate(314.264193 322.182437)scale(0.1 -0.1)">
       <use xlink:href="#DejaVuSans-53"/>
      </g>
     </g>
    </g>
    <g id="xtick_17">
     <g id="line2d_17">
      <g>
       <use style="stroke:#000000;stroke-width:0.8;" x="333.68629" xlink:href="#m8f76523642" y="307.584"/>
      </g>
     </g>
     <g id="text_17">
      <!-- 6 -->
      <g transform="translate(330.50504 322.182437)scale(0.1 -0.1)">
       <use xlink:href="#DejaVuSans-54"/>
      </g>
     </g>
    </g>
    <g id="xtick_18">
     <g id="line2d_18">
      <g>
       <use style="stroke:#000000;stroke-width:0.8;" x="349.927138" xlink:href="#m8f76523642" y="307.584"/>
      </g>
     </g>
     <g id="text_18">
      <!-- 7 -->
      <g transform="translate(346.745888 322.182437)scale(0.1 -0.1)">
       <use xlink:href="#DejaVuSans-55"/>
      </g>
     </g>
    </g>
    <g id="xtick_19">
     <g id="line2d_19">
      <g>
       <use style="stroke:#000000;stroke-width:0.8;" x="366.167986" xlink:href="#m8f76523642" y="307.584"/>
      </g>
     </g>
     <g id="text_19">
      <!-- 8 -->
      <g transform="translate(362.986736 322.182437)scale(0.1 -0.1)">
       <use xlink:href="#DejaVuSans-56"/>
      </g>
     </g>
    </g>
    <g id="xtick_20">
     <g id="line2d_20">
      <g>
       <use style="stroke:#000000;stroke-width:0.8;" x="382.408834" xlink:href="#m8f76523642" y="307.584"/>
      </g>
     </g>
     <g id="text_20">
      <!-- 9 -->
      <g transform="translate(379.227584 322.182437)scale(0.1 -0.1)">
       <use xlink:href="#DejaVuSans-57"/>
      </g>
     </g>
    </g>
    <g id="xtick_21">
     <g id="line2d_21">
      <g>
       <use style="stroke:#000000;stroke-width:0.8;" x="398.649681" xlink:href="#m8f76523642" y="307.584"/>
      </g>
     </g>
     <g id="text_21">
      <!-- 10 -->
      <g transform="translate(392.287181 322.182437)scale(0.1 -0.1)">
       <use xlink:href="#DejaVuSans-49"/>
       <use x="63.623047" xlink:href="#DejaVuSans-48"/>
      </g>
     </g>
    </g>
    <g id="text_22">
     <!-- E -->
     <defs>
      <path d="M 9.8125 72.90625 
L 55.90625 72.90625 
L 55.90625 64.59375 
L 19.671875 64.59375 
L 19.671875 43.015625 
L 54.390625 43.015625 
L 54.390625 34.71875 
L 19.671875 34.71875 
L 19.671875 8.296875 
L 56.78125 8.296875 
L 56.78125 0 
L 9.8125 0 
z
" id="DejaVuSans-69"/>
     </defs>
     <g transform="translate(233.000625 335.860562)scale(0.1 -0.1)">
      <use xlink:href="#DejaVuSans-69"/>
     </g>
    </g>
   </g>
   <g id="matplotlib.axis_2">
    <g id="ytick_1">
     <g id="line2d_22">
      <defs>
       <path d="M 0 0 
L -3.5 0 
" id="mf21fce7ce9" style="stroke:#000000;stroke-width:0.8;"/>
      </defs>
      <g>
       <use style="stroke:#000000;stroke-width:0.8;" x="57.6" xlink:href="#mf21fce7ce9" y="297.603972"/>
      </g>
     </g>
     <g id="text_23">
      <!-- 0.000 -->
      <defs>
       <path d="M 10.6875 12.40625 
L 21 12.40625 
L 21 0 
L 10.6875 0 
z
" id="DejaVuSans-46"/>
      </defs>
      <g transform="translate(21.971875 301.40319)scale(0.1 -0.1)">
       <use xlink:href="#DejaVuSans-48"/>
       <use x="63.623047" xlink:href="#DejaVuSans-46"/>
       <use x="95.410156" xlink:href="#DejaVuSans-48"/>
       <use x="159.033203" xlink:href="#DejaVuSans-48"/>
       <use x="222.65625" xlink:href="#DejaVuSans-48"/>
      </g>
     </g>
    </g>
    <g id="ytick_2">
     <g id="line2d_23">
      <g>
       <use style="stroke:#000000;stroke-width:0.8;" x="57.6" xlink:href="#mf21fce7ce9" y="266.250478"/>
      </g>
     </g>
     <g id="text_24">
      <!-- 0.025 -->
      <g transform="translate(21.971875 270.049697)scale(0.1 -0.1)">
       <use xlink:href="#DejaVuSans-48"/>
       <use x="63.623047" xlink:href="#DejaVuSans-46"/>
       <use x="95.410156" xlink:href="#DejaVuSans-48"/>
       <use x="159.033203" xlink:href="#DejaVuSans-50"/>
       <use x="222.65625" xlink:href="#DejaVuSans-53"/>
      </g>
     </g>
    </g>
    <g id="ytick_3">
     <g id="line2d_24">
      <g>
       <use style="stroke:#000000;stroke-width:0.8;" x="57.6" xlink:href="#mf21fce7ce9" y="234.896985"/>
      </g>
     </g>
     <g id="text_25">
      <!-- 0.050 -->
      <g transform="translate(21.971875 238.696203)scale(0.1 -0.1)">
       <use xlink:href="#DejaVuSans-48"/>
       <use x="63.623047" xlink:href="#DejaVuSans-46"/>
       <use x="95.410156" xlink:href="#DejaVuSans-48"/>
       <use x="159.033203" xlink:href="#DejaVuSans-53"/>
       <use x="222.65625" xlink:href="#DejaVuSans-48"/>
      </g>
     </g>
    </g>
    <g id="ytick_4">
     <g id="line2d_25">
      <g>
       <use style="stroke:#000000;stroke-width:0.8;" x="57.6" xlink:href="#mf21fce7ce9" y="203.543491"/>
      </g>
     </g>
     <g id="text_26">
      <!-- 0.075 -->
      <g transform="translate(21.971875 207.34271)scale(0.1 -0.1)">
       <use xlink:href="#DejaVuSans-48"/>
       <use x="63.623047" xlink:href="#DejaVuSans-46"/>
       <use x="95.410156" xlink:href="#DejaVuSans-48"/>
       <use x="159.033203" xlink:href="#DejaVuSans-55"/>
       <use x="222.65625" xlink:href="#DejaVuSans-53"/>
      </g>
     </g>
    </g>
    <g id="ytick_5">
     <g id="line2d_26">
      <g>
       <use style="stroke:#000000;stroke-width:0.8;" x="57.6" xlink:href="#mf21fce7ce9" y="172.189998"/>
      </g>
     </g>
     <g id="text_27">
      <!-- 0.100 -->
      <g transform="translate(21.971875 175.989217)scale(0.1 -0.1)">
       <use xlink:href="#DejaVuSans-48"/>
       <use x="63.623047" xlink:href="#DejaVuSans-46"/>
       <use x="95.410156" xlink:href="#DejaVuSans-49"/>
       <use x="159.033203" xlink:href="#DejaVuSans-48"/>
       <use x="222.65625" xlink:href="#DejaVuSans-48"/>
      </g>
     </g>
    </g>
    <g id="ytick_6">
     <g id="line2d_27">
      <g>
       <use style="stroke:#000000;stroke-width:0.8;" x="57.6" xlink:href="#mf21fce7ce9" y="140.836504"/>
      </g>
     </g>
     <g id="text_28">
      <!-- 0.125 -->
      <g transform="translate(21.971875 144.635723)scale(0.1 -0.1)">
       <use xlink:href="#DejaVuSans-48"/>
       <use x="63.623047" xlink:href="#DejaVuSans-46"/>
       <use x="95.410156" xlink:href="#DejaVuSans-49"/>
       <use x="159.033203" xlink:href="#DejaVuSans-50"/>
       <use x="222.65625" xlink:href="#DejaVuSans-53"/>
      </g>
     </g>
    </g>
    <g id="ytick_7">
     <g id="line2d_28">
      <g>
       <use style="stroke:#000000;stroke-width:0.8;" x="57.6" xlink:href="#mf21fce7ce9" y="109.483011"/>
      </g>
     </g>
     <g id="text_29">
      <!-- 0.150 -->
      <g transform="translate(21.971875 113.28223)scale(0.1 -0.1)">
       <use xlink:href="#DejaVuSans-48"/>
       <use x="63.623047" xlink:href="#DejaVuSans-46"/>
       <use x="95.410156" xlink:href="#DejaVuSans-49"/>
       <use x="159.033203" xlink:href="#DejaVuSans-53"/>
       <use x="222.65625" xlink:href="#DejaVuSans-48"/>
      </g>
     </g>
    </g>
    <g id="ytick_8">
     <g id="line2d_29">
      <g>
       <use style="stroke:#000000;stroke-width:0.8;" x="57.6" xlink:href="#mf21fce7ce9" y="78.129518"/>
      </g>
     </g>
     <g id="text_30">
      <!-- 0.175 -->
      <g transform="translate(21.971875 81.928736)scale(0.1 -0.1)">
       <use xlink:href="#DejaVuSans-48"/>
       <use x="63.623047" xlink:href="#DejaVuSans-46"/>
       <use x="95.410156" xlink:href="#DejaVuSans-49"/>
       <use x="159.033203" xlink:href="#DejaVuSans-55"/>
       <use x="222.65625" xlink:href="#DejaVuSans-53"/>
      </g>
     </g>
    </g>
    <g id="ytick_9">
     <g id="line2d_30">
      <g>
       <use style="stroke:#000000;stroke-width:0.8;" x="57.6" xlink:href="#mf21fce7ce9" y="46.776024"/>
      </g>
     </g>
     <g id="text_31">
      <!-- 0.200 -->
      <g transform="translate(21.971875 50.575243)scale(0.1 -0.1)">
       <use xlink:href="#DejaVuSans-48"/>
       <use x="63.623047" xlink:href="#DejaVuSans-46"/>
       <use x="95.410156" xlink:href="#DejaVuSans-50"/>
       <use x="159.033203" xlink:href="#DejaVuSans-48"/>
       <use x="222.65625" xlink:href="#DejaVuSans-48"/>
      </g>
     </g>
    </g>
   </g>
   <g id="line2d_31">
    <path clip-path="url(#p5ee2a0455f)" d="M 73.832727 295.488 
L 92.184885 294.870831 
L 106.476831 294.175435 
L 117.845425 293.406066 
L 127.102708 292.562256 
L 134.735906 291.649838 
L 141.232245 290.652579 
L 146.754133 289.582456 
L 151.463979 288.449616 
L 155.524191 287.256244 
L 159.097178 285.988877 
L 162.345347 284.609015 
L 165.2687 283.130263 
L 167.867235 281.577442 
L 170.303363 279.865833 
L 172.577081 277.989329 
L 174.688391 275.946303 
L 176.637293 273.741556 
L 178.423786 271.388567 
L 180.21028 268.643861 
L 181.834364 265.730276 
L 183.458449 262.32454 
L 184.920126 258.741989 
L 186.381802 254.555934 
L 187.843478 249.626298 
L 189.142746 244.476621 
L 190.442014 238.441092 
L 191.741282 231.325587 
L 193.040549 222.895243 
L 194.339817 212.875565 
L 195.639085 200.966895 
L 196.938353 186.886579 
L 198.237621 170.460291 
L 199.861705 146.815467 
L 204.084326 82.64421 
L 205.058777 71.707365 
L 205.870819 64.613031 
L 206.682861 59.404763 
L 207.332495 56.527785 
L 207.982129 54.687277 
L 208.469355 53.910249 
L 208.95658 53.585754 
L 209.281397 53.59188 
L 209.768622 53.892559 
L 210.255848 54.495086 
L 210.905482 55.682237 
L 211.717524 57.637841 
L 213.016792 61.4713 
L 215.777736 70.648935 
L 218.376272 78.9052 
L 220.325173 84.372636 
L 222.111667 88.750884 
L 223.89816 92.519787 
L 225.522245 95.434968 
L 227.14633 97.886099 
L 228.608006 99.71408 
L 230.069682 101.199661 
L 231.531358 102.355843 
L 232.830626 103.115548 
L 234.129894 103.628834 
L 235.429162 103.899487 
L 236.72843 103.929513 
L 238.027697 103.719135 
L 239.326965 103.266793 
L 240.626233 102.569144 
L 241.925501 101.621083 
L 243.224769 100.415782 
L 244.686445 98.741733 
L 246.148121 96.717101 
L 247.609798 94.325868 
L 249.233882 91.218725 
L 250.857967 87.617756 
L 252.64446 83.072171 
L 254.593362 77.432034 
L 256.867081 70.106996 
L 260.440067 58.530974 
L 261.576927 55.682237 
L 262.388969 54.263888 
L 262.876194 53.756195 
L 263.36342 53.568 
L 263.688237 53.647272 
L 264.013054 53.910249 
L 264.500279 54.687277 
L 264.987505 55.975214 
L 265.47473 57.829452 
L 266.124364 61.265805 
L 266.773998 65.879913 
L 267.58604 73.3521 
L 268.560491 84.702825 
L 269.859759 103.100235 
L 274.894422 178.969464 
L 276.356098 195.954315 
L 277.655366 208.647403 
L 278.954634 219.33993 
L 280.253901 228.332235 
L 281.553169 235.911038 
L 282.852437 242.326683 
L 284.314113 248.412734 
L 285.77579 253.530343 
L 287.237466 257.868316 
L 288.699142 261.574534 
L 290.323227 265.091837 
L 291.947312 268.095817 
L 293.733805 270.921092 
L 295.520298 273.339373 
L 297.4692 275.601945 
L 299.58051 277.695501 
L 301.854229 279.615697 
L 304.290356 281.364781 
L 306.888892 282.949549 
L 309.812244 284.456833 
L 312.898005 285.797108 
L 316.470992 287.096646 
L 320.368795 288.273713 
L 324.753824 289.366844 
L 329.788487 290.392108 
L 335.635192 291.351649 
L 342.456348 292.240297 
L 350.576772 293.065173 
L 360.321281 293.820729 
L 372.177099 294.505676 
L 386.793862 295.11757 
L 398.487273 295.48351 
L 398.487273 295.48351 
" style="fill:none;stroke:#1f77b4;stroke-linecap:square;stroke-width:1.5;"/>
   </g>
   <g id="line2d_32">
    <path clip-path="url(#p5ee2a0455f)" d="M 73.832727 295.466197 
L 91.860068 294.847694 
L 105.827197 294.155698 
L 117.033382 293.384076 
L 126.128257 292.539951 
L 133.599047 291.630328 
L 139.932977 290.639955 
L 145.292457 289.582563 
L 149.839894 288.470251 
L 153.900106 287.253696 
L 157.473093 285.953279 
L 160.558854 284.605059 
L 163.319798 283.172067 
L 165.918334 281.575015 
L 168.192052 279.928839 
L 170.303363 278.140054 
L 172.252264 276.21277 
L 174.201166 273.955963 
L 175.987659 271.527349 
L 177.611744 268.948817 
L 179.235829 265.933222 
L 180.697505 262.758799 
L 182.159181 259.04673 
L 183.620858 254.672583 
L 184.920126 250.103212 
L 186.219393 244.754313 
L 187.518661 238.46984 
L 188.817929 231.077268 
L 190.117197 222.404622 
L 191.416465 212.314217 
L 192.878141 199.209588 
L 194.664634 180.927324 
L 200.673748 116.881944 
L 201.973016 106.392966 
L 203.109875 98.878956 
L 204.084326 93.697791 
L 205.058777 89.636471 
L 205.870819 87.049758 
L 206.682861 85.12323 
L 207.494904 83.787256 
L 208.144538 83.094476 
L 208.794172 82.695386 
L 209.443806 82.554081 
L 210.093439 82.637061 
L 210.905482 83.009958 
L 211.717524 83.632996 
L 212.691975 84.646782 
L 213.991243 86.340025 
L 215.777736 89.076675 
L 220.974807 97.284241 
L 222.761301 99.546606 
L 224.547794 101.428942 
L 226.334287 102.98874 
L 228.12078 104.271893 
L 229.907274 105.299556 
L 231.693767 106.073593 
L 233.48026 106.588505 
L 235.266753 106.85716 
L 237.053247 106.904521 
L 238.83974 106.734795 
L 240.463825 106.368075 
L 242.087909 105.763422 
L 243.549586 104.98602 
L 245.011262 103.968114 
L 246.635347 102.554255 
L 248.42184 100.689281 
L 250.53315 98.149681 
L 253.131686 94.646084 
L 256.379855 89.848848 
L 258.978391 86.102514 
L 260.277659 84.560435 
L 261.25211 83.681364 
L 262.064152 83.193263 
L 262.876194 82.980141 
L 263.525828 83.044246 
L 264.175462 83.349984 
L 264.825096 83.930312 
L 265.47473 84.820033 
L 266.124364 86.055198 
L 266.936406 88.140496 
L 267.748449 90.892115 
L 268.560491 94.373525 
L 269.534942 99.585301 
L 270.509393 105.970534 
L 271.646252 114.889658 
L 272.94552 126.852538 
L 274.732013 145.649057 
L 279.604268 198.598102 
L 281.228352 213.159473 
L 282.690029 224.294076 
L 284.151705 233.656466 
L 285.613381 241.464134 
L 287.075058 247.967987 
L 288.536734 253.404263 
L 289.99841 257.975409 
L 291.460086 261.846936 
L 293.084171 265.487985 
L 294.708256 268.56992 
L 296.332341 271.202129 
L 298.118834 273.678514 
L 300.067736 275.977121 
L 302.016637 277.938006 
L 304.127948 279.756155 
L 306.401666 281.427734 
L 309.000202 283.047881 
L 311.761146 284.500243 
L 314.846907 285.865474 
L 318.257485 287.126559 
L 322.155289 288.321235 
L 326.540317 289.424689 
L 331.57498 290.454608 
L 337.421685 291.41435 
L 344.242841 292.299848 
L 352.363265 293.119173 
L 362.107774 293.867665 
L 373.963593 294.544806 
L 388.580356 295.148825 
L 398.487273 295.460093 
L 398.487273 295.460093 
" style="fill:none;stroke:#ff7f0e;stroke-linecap:square;stroke-width:1.5;"/>
   </g>
   <g id="line2d_33">
    <path clip-path="url(#p5ee2a0455f)" d="M 73.832727 295.391498 
L 90.885617 294.766161 
L 104.040704 294.07185 
L 114.597255 293.299215 
L 123.042496 292.468214 
L 130.02606 291.568708 
L 135.872765 290.602963 
L 140.907428 289.553123 
L 145.292457 288.411773 
L 149.027852 287.213456 
L 152.276022 285.945961 
L 155.199374 284.569444 
L 157.79791 283.102076 
L 160.071629 281.57612 
L 162.182939 279.901584 
L 164.13184 278.077553 
L 165.918334 276.110221 
L 167.542418 274.015686 
L 169.166503 271.558441 
L 170.62818 268.963696 
L 172.089856 265.921789 
L 173.551532 262.333314 
L 175.013208 258.08171 
L 176.312476 253.642887 
L 177.774153 247.795155 
L 179.235829 240.954117 
L 180.859914 232.158721 
L 182.646407 221.164632 
L 185.082534 204.612341 
L 189.629971 173.390412 
L 191.416465 162.654455 
L 193.040549 154.202217 
L 194.502226 147.76157 
L 195.801493 142.939871 
L 197.100761 138.901057 
L 198.400029 135.566682 
L 199.699297 132.856645 
L 200.998565 130.692052 
L 202.297833 128.995372 
L 203.5971 127.690156 
L 204.896368 126.701251 
L 206.358044 125.875124 
L 208.144538 125.133397 
L 212.20475 123.791116 
L 216.752187 122.179452 
L 220.974807 120.627657 
L 222.761301 120.252294 
L 224.547794 120.116611 
L 226.496696 120.197379 
L 230.394499 120.665848 
L 234.454711 121.003248 
L 242.412726 121.448923 
L 248.909065 121.721833 
L 250.695559 122.094316 
L 252.64446 122.732803 
L 259.303208 125.153594 
L 261.414518 125.558104 
L 264.013054 125.802195 
L 266.773998 126.069542 
L 268.073266 126.408921 
L 269.210125 126.944985 
L 270.184576 127.650492 
L 271.159027 128.637302 
L 272.133478 129.951859 
L 273.107929 131.636285 
L 274.082379 133.730188 
L 275.219239 136.741602 
L 276.356098 140.418266 
L 277.655366 145.487039 
L 278.954634 151.497785 
L 280.41631 159.333182 
L 282.202803 170.22862 
L 284.63893 186.666031 
L 289.836002 222.237105 
L 291.784903 233.838643 
L 293.408988 242.267455 
L 295.033073 249.501099 
L 296.494749 255.034709 
L 297.956425 259.736615 
L 299.418102 263.718312 
L 300.879778 267.092792 
L 302.503863 270.255525 
L 304.127948 272.917311 
L 305.752032 275.176386 
L 307.538526 277.288448 
L 309.487427 279.237228 
L 311.598738 281.017761 
L 313.872456 282.632925 
L 316.308583 284.090584 
L 319.069527 285.476308 
L 322.155289 286.765671 
L 325.565867 287.946192 
L 329.46367 289.056152 
L 334.011107 290.108854 
L 339.208179 291.075538 
L 345.217292 291.964232 
L 352.363265 292.792065 
L 360.970915 293.55791 
L 371.365057 294.253014 
L 384.357735 294.888766 
L 398.487273 295.389514 
L 398.487273 295.389514 
" style="fill:none;stroke:#2ca02c;stroke-linecap:square;stroke-width:1.5;"/>
   </g>
   <g id="line2d_34">
    <path clip-path="url(#p5ee2a0455f)" d="M 73.832727 295.259251 
L 89.423941 294.618494 
L 101.442168 293.909837 
L 111.024268 293.12773 
L 118.657467 292.291108 
L 124.991398 291.381779 
L 130.350877 290.390775 
L 134.898315 289.323208 
L 138.796118 288.17667 
L 142.044288 286.997877 
L 144.96764 285.703245 
L 147.566176 284.305665 
L 149.839894 282.832408 
L 151.951205 281.192014 
L 153.900106 279.377299 
L 155.6866 277.38909 
L 157.310684 275.240855 
L 158.772361 272.963662 
L 160.234037 270.291126 
L 161.695713 267.149281 
L 163.15739 263.465083 
L 164.619066 259.17787 
L 166.243151 253.665274 
L 167.867235 247.369292 
L 169.816137 238.870396 
L 172.089856 227.899604 
L 175.825251 208.549056 
L 178.748603 193.896329 
L 180.535097 185.980692 
L 181.996773 180.386749 
L 183.296041 176.16728 
L 184.595309 172.656306 
L 185.894576 169.796425 
L 187.193844 167.492813 
L 188.493112 165.633202 
L 189.954788 163.936551 
L 191.578873 162.398579 
L 193.527775 160.884184 
L 195.801493 159.425723 
L 198.237621 158.121909 
L 200.836156 156.989102 
L 204.896368 155.529359 
L 209.768622 153.670524 
L 220.812399 149.358699 
L 224.060568 148.20486 
L 229.582457 145.871917 
L 232.830626 144.66568 
L 235.104345 144.040913 
L 237.053247 143.726279 
L 239.489374 143.573063 
L 242.250318 143.616208 
L 244.036811 143.846737 
L 245.660896 144.279198 
L 247.284981 144.9488 
L 249.071474 145.927196 
L 251.67001 147.630009 
L 256.379855 150.741737 
L 258.653574 151.96984 
L 261.089701 153.01788 
L 269.210125 156.238764 
L 271.483844 157.591208 
L 277.655366 161.466866 
L 282.52762 164.098268 
L 283.66448 165.054853 
L 284.801339 166.315874 
L 285.938198 167.96652 
L 287.075058 170.084156 
L 288.211917 172.732967 
L 289.348776 175.956407 
L 290.648044 180.360175 
L 292.10972 186.186284 
L 293.733805 193.58985 
L 295.845115 204.285739 
L 303.153497 242.295077 
L 304.93999 250.013523 
L 306.564075 256.125523 
L 308.18816 261.358795 
L 309.649836 265.36098 
L 311.111512 268.764748 
L 312.573188 271.652753 
L 314.197273 274.356803 
L 315.821358 276.627214 
L 317.607851 278.724333 
L 319.394344 280.488177 
L 321.343246 282.112447 
L 323.454556 283.593965 
L 325.890684 285.023523 
L 328.489219 286.292819 
L 331.412572 287.47911 
L 334.82315 288.617447 
L 338.720953 289.675724 
L 343.268391 290.669298 
L 348.465462 291.573686 
L 354.636984 292.418715 
L 362.107774 293.208647 
L 371.202649 293.935323 
L 382.408834 294.595876 
L 396.375963 295.186908 
L 398.487273 295.260175 
L 398.487273 295.260175 
" style="fill:none;stroke:#d62728;stroke-linecap:square;stroke-width:1.5;"/>
   </g>
   <g id="line2d_35">
    <path clip-path="url(#p5ee2a0455f)" d="M 73.832727 295.034458 
L 87.312631 294.375928 
L 97.706773 293.655607 
L 105.989606 292.868303 
L 112.648353 292.023515 
L 118.170241 291.108815 
L 122.717679 290.143831 
L 126.615482 289.100646 
L 130.02606 287.95973 
L 132.949413 286.74896 
L 135.547949 285.427984 
L 137.821667 284.019769 
L 139.770569 282.56689 
L 141.557062 280.978794 
L 143.343555 279.079903 
L 144.96764 277.017377 
L 146.591725 274.563434 
L 148.053401 271.960229 
L 149.515078 268.931883 
L 151.139162 265.021001 
L 152.763247 260.505045 
L 154.54974 254.836213 
L 156.498642 247.868206 
L 158.772361 238.890291 
L 166.080742 209.279469 
L 167.704827 203.948899 
L 169.166503 199.824478 
L 170.62818 196.342259 
L 172.089856 193.461705 
L 173.551532 191.114334 
L 175.013208 189.218933 
L 176.474885 187.688548 
L 178.261378 186.166835 
L 188.817929 178.118596 
L 190.766831 176.984516 
L 192.715732 176.132842 
L 195.15186 175.341808 
L 198.400029 174.521899 
L 200.998565 174.081873 
L 203.5971 173.876789 
L 207.494904 173.847815 
L 210.418256 173.720271 
L 212.691975 173.400423 
L 214.965694 172.844249 
L 222.436484 170.753211 
L 232.830626 168.986733 
L 238.352514 168.446666 
L 242.899952 167.927214 
L 244.848854 167.944123 
L 246.797755 168.19656 
L 249.071474 168.744378 
L 254.430954 170.12243 
L 264.662688 172.440948 
L 267.748449 173.499842 
L 276.031281 176.715908 
L 277.817774 177.805379 
L 279.766676 179.262544 
L 282.202803 181.370582 
L 292.10972 190.303079 
L 296.494749 193.897931 
L 298.118834 195.562133 
L 299.58051 197.395161 
L 300.879778 199.384306 
L 302.179046 201.798812 
L 303.478314 204.715814 
L 304.777582 208.184052 
L 306.239258 212.742389 
L 308.025751 219.132918 
L 310.461878 228.802613 
L 315.009316 247.000229 
L 317.120626 254.468602 
L 319.069527 260.553707 
L 320.856021 265.413258 
L 322.480106 269.237252 
L 324.10419 272.523195 
L 325.728275 275.316229 
L 327.35236 277.673865 
L 328.976445 279.659955 
L 330.762938 281.490565 
L 332.71184 283.148844 
L 334.82315 284.634132 
L 337.096868 285.955655 
L 339.695404 287.198147 
L 342.618757 288.339746 
L 346.029335 289.418245 
L 349.927138 290.407029 
L 354.474575 291.324262 
L 359.834055 292.17363 
L 366.330394 292.969595 
L 374.126001 293.694957 
L 383.87051 294.368564 
L 396.051146 294.977148 
L 398.487273 295.076686 
L 398.487273 295.076686 
" style="fill:none;stroke:#9467bd;stroke-linecap:square;stroke-width:1.5;"/>
   </g>
   <g id="patch_3">
    <path d="M 57.6 307.584 
L 57.6 41.472 
" style="fill:none;stroke:#000000;stroke-linecap:square;stroke-linejoin:miter;stroke-width:0.8;"/>
   </g>
   <g id="patch_4">
    <path d="M 414.72 307.584 
L 414.72 41.472 
" style="fill:none;stroke:#000000;stroke-linecap:square;stroke-linejoin:miter;stroke-width:0.8;"/>
   </g>
   <g id="patch_5">
    <path d="M 57.6 307.584 
L 414.72 307.584 
" style="fill:none;stroke:#000000;stroke-linecap:square;stroke-linejoin:miter;stroke-width:0.8;"/>
   </g>
   <g id="patch_6">
    <path d="M 57.6 41.472 
L 414.72 41.472 
" style="fill:none;stroke:#000000;stroke-linecap:square;stroke-linejoin:miter;stroke-width:0.8;"/>
   </g>
   <g id="text_32">
    <!-- Density of States -->
    <defs>
     <path d="M 19.671875 64.796875 
L 19.671875 8.109375 
L 31.59375 8.109375 
Q 46.6875 8.109375 53.6875 14.9375 
Q 60.6875 21.78125 60.6875 36.53125 
Q 60.6875 51.171875 53.6875 57.984375 
Q 46.6875 64.796875 31.59375 64.796875 
z
M 9.8125 72.90625 
L 30.078125 72.90625 
Q 51.265625 72.90625 61.171875 64.09375 
Q 71.09375 55.28125 71.09375 36.53125 
Q 71.09375 17.671875 61.125 8.828125 
Q 51.171875 0 30.078125 0 
L 9.8125 0 
z
" id="DejaVuSans-68"/>
     <path d="M 56.203125 29.59375 
L 56.203125 25.203125 
L 14.890625 25.203125 
Q 15.484375 15.921875 20.484375 11.0625 
Q 25.484375 6.203125 34.421875 6.203125 
Q 39.59375 6.203125 44.453125 7.46875 
Q 49.3125 8.734375 54.109375 11.28125 
L 54.109375 2.78125 
Q 49.265625 0.734375 44.1875 -0.34375 
Q 39.109375 -1.421875 33.890625 -1.421875 
Q 20.796875 -1.421875 13.15625 6.1875 
Q 5.515625 13.8125 5.515625 26.8125 
Q 5.515625 40.234375 12.765625 48.109375 
Q 20.015625 56 32.328125 56 
Q 43.359375 56 49.78125 48.890625 
Q 56.203125 41.796875 56.203125 29.59375 
z
M 47.21875 32.234375 
Q 47.125 39.59375 43.09375 43.984375 
Q 39.0625 48.390625 32.421875 48.390625 
Q 24.90625 48.390625 20.390625 44.140625 
Q 15.875 39.890625 15.1875 32.171875 
z
" id="DejaVuSans-101"/>
     <path d="M 54.890625 33.015625 
L 54.890625 0 
L 45.90625 0 
L 45.90625 32.71875 
Q 45.90625 40.484375 42.875 44.328125 
Q 39.84375 48.1875 33.796875 48.1875 
Q 26.515625 48.1875 22.3125 43.546875 
Q 18.109375 38.921875 18.109375 30.90625 
L 18.109375 0 
L 9.078125 0 
L 9.078125 54.6875 
L 18.109375 54.6875 
L 18.109375 46.1875 
Q 21.34375 51.125 25.703125 53.5625 
Q 30.078125 56 35.796875 56 
Q 45.21875 56 50.046875 50.171875 
Q 54.890625 44.34375 54.890625 33.015625 
z
" id="DejaVuSans-110"/>
     <path d="M 44.28125 53.078125 
L 44.28125 44.578125 
Q 40.484375 46.53125 36.375 47.5 
Q 32.28125 48.484375 27.875 48.484375 
Q 21.1875 48.484375 17.84375 46.4375 
Q 14.5 44.390625 14.5 40.28125 
Q 14.5 37.15625 16.890625 35.375 
Q 19.28125 33.59375 26.515625 31.984375 
L 29.59375 31.296875 
Q 39.15625 29.25 43.1875 25.515625 
Q 47.21875 21.78125 47.21875 15.09375 
Q 47.21875 7.46875 41.1875 3.015625 
Q 35.15625 -1.421875 24.609375 -1.421875 
Q 20.21875 -1.421875 15.453125 -0.5625 
Q 10.6875 0.296875 5.421875 2 
L 5.421875 11.28125 
Q 10.40625 8.6875 15.234375 7.390625 
Q 20.0625 6.109375 24.8125 6.109375 
Q 31.15625 6.109375 34.5625 8.28125 
Q 37.984375 10.453125 37.984375 14.40625 
Q 37.984375 18.0625 35.515625 20.015625 
Q 33.0625 21.96875 24.703125 23.78125 
L 21.578125 24.515625 
Q 13.234375 26.265625 9.515625 29.90625 
Q 5.8125 33.546875 5.8125 39.890625 
Q 5.8125 47.609375 11.28125 51.796875 
Q 16.75 56 26.8125 56 
Q 31.78125 56 36.171875 55.265625 
Q 40.578125 54.546875 44.28125 53.078125 
z
" id="DejaVuSans-115"/>
     <path d="M 9.421875 54.6875 
L 18.40625 54.6875 
L 18.40625 0 
L 9.421875 0 
z
M 9.421875 75.984375 
L 18.40625 75.984375 
L 18.40625 64.59375 
L 9.421875 64.59375 
z
" id="DejaVuSans-105"/>
     <path d="M 18.3125 70.21875 
L 18.3125 54.6875 
L 36.8125 54.6875 
L 36.8125 47.703125 
L 18.3125 47.703125 
L 18.3125 18.015625 
Q 18.3125 11.328125 20.140625 9.421875 
Q 21.96875 7.515625 27.59375 7.515625 
L 36.8125 7.515625 
L 36.8125 0 
L 27.59375 0 
Q 17.1875 0 13.234375 3.875 
Q 9.28125 7.765625 9.28125 18.015625 
L 9.28125 47.703125 
L 2.6875 47.703125 
L 2.6875 54.6875 
L 9.28125 54.6875 
L 9.28125 70.21875 
z
" id="DejaVuSans-116"/>
     <path d="M 32.171875 -5.078125 
Q 28.375 -14.84375 24.75 -17.8125 
Q 21.140625 -20.796875 15.09375 -20.796875 
L 7.90625 -20.796875 
L 7.90625 -13.28125 
L 13.1875 -13.28125 
Q 16.890625 -13.28125 18.9375 -11.515625 
Q 21 -9.765625 23.484375 -3.21875 
L 25.09375 0.875 
L 2.984375 54.6875 
L 12.5 54.6875 
L 29.59375 11.921875 
L 46.6875 54.6875 
L 56.203125 54.6875 
z
" id="DejaVuSans-121"/>
     <path id="DejaVuSans-32"/>
     <path d="M 30.609375 48.390625 
Q 23.390625 48.390625 19.1875 42.75 
Q 14.984375 37.109375 14.984375 27.296875 
Q 14.984375 17.484375 19.15625 11.84375 
Q 23.34375 6.203125 30.609375 6.203125 
Q 37.796875 6.203125 41.984375 11.859375 
Q 46.1875 17.53125 46.1875 27.296875 
Q 46.1875 37.015625 41.984375 42.703125 
Q 37.796875 48.390625 30.609375 48.390625 
z
M 30.609375 56 
Q 42.328125 56 49.015625 48.375 
Q 55.71875 40.765625 55.71875 27.296875 
Q 55.71875 13.875 49.015625 6.21875 
Q 42.328125 -1.421875 30.609375 -1.421875 
Q 18.84375 -1.421875 12.171875 6.21875 
Q 5.515625 13.875 5.515625 27.296875 
Q 5.515625 40.765625 12.171875 48.375 
Q 18.84375 56 30.609375 56 
z
" id="DejaVuSans-111"/>
     <path d="M 37.109375 75.984375 
L 37.109375 68.5 
L 28.515625 68.5 
Q 23.6875 68.5 21.796875 66.546875 
Q 19.921875 64.59375 19.921875 59.515625 
L 19.921875 54.6875 
L 34.71875 54.6875 
L 34.71875 47.703125 
L 19.921875 47.703125 
L 19.921875 0 
L 10.890625 0 
L 10.890625 47.703125 
L 2.296875 47.703125 
L 2.296875 54.6875 
L 10.890625 54.6875 
L 10.890625 58.5 
Q 10.890625 67.625 15.140625 71.796875 
Q 19.390625 75.984375 28.609375 75.984375 
z
" id="DejaVuSans-102"/>
     <path d="M 53.515625 70.515625 
L 53.515625 60.890625 
Q 47.90625 63.578125 42.921875 64.890625 
Q 37.9375 66.21875 33.296875 66.21875 
Q 25.25 66.21875 20.875 63.09375 
Q 16.5 59.96875 16.5 54.203125 
Q 16.5 49.359375 19.40625 46.890625 
Q 22.3125 44.4375 30.421875 42.921875 
L 36.375 41.703125 
Q 47.40625 39.59375 52.65625 34.296875 
Q 57.90625 29 57.90625 20.125 
Q 57.90625 9.515625 50.796875 4.046875 
Q 43.703125 -1.421875 29.984375 -1.421875 
Q 24.8125 -1.421875 18.96875 -0.25 
Q 13.140625 0.921875 6.890625 3.21875 
L 6.890625 13.375 
Q 12.890625 10.015625 18.65625 8.296875 
Q 24.421875 6.59375 29.984375 6.59375 
Q 38.421875 6.59375 43.015625 9.90625 
Q 47.609375 13.234375 47.609375 19.390625 
Q 47.609375 24.75 44.3125 27.78125 
Q 41.015625 30.8125 33.5 32.328125 
L 27.484375 33.5 
Q 16.453125 35.6875 11.515625 40.375 
Q 6.59375 45.0625 6.59375 53.421875 
Q 6.59375 63.09375 13.40625 68.65625 
Q 20.21875 74.21875 32.171875 74.21875 
Q 37.3125 74.21875 42.625 73.28125 
Q 47.953125 72.359375 53.515625 70.515625 
z
" id="DejaVuSans-83"/>
     <path d="M 34.28125 27.484375 
Q 23.390625 27.484375 19.1875 25 
Q 14.984375 22.515625 14.984375 16.5 
Q 14.984375 11.71875 18.140625 8.90625 
Q 21.296875 6.109375 26.703125 6.109375 
Q 34.1875 6.109375 38.703125 11.40625 
Q 43.21875 16.703125 43.21875 25.484375 
L 43.21875 27.484375 
z
M 52.203125 31.203125 
L 52.203125 0 
L 43.21875 0 
L 43.21875 8.296875 
Q 40.140625 3.328125 35.546875 0.953125 
Q 30.953125 -1.421875 24.3125 -1.421875 
Q 15.921875 -1.421875 10.953125 3.296875 
Q 6 8.015625 6 15.921875 
Q 6 25.140625 12.171875 29.828125 
Q 18.359375 34.515625 30.609375 34.515625 
L 43.21875 34.515625 
L 43.21875 35.40625 
Q 43.21875 41.609375 39.140625 45 
Q 35.0625 48.390625 27.6875 48.390625 
Q 23 48.390625 18.546875 47.265625 
Q 14.109375 46.140625 10.015625 43.890625 
L 10.015625 52.203125 
Q 14.9375 54.109375 19.578125 55.046875 
Q 24.21875 56 28.609375 56 
Q 40.484375 56 46.34375 49.84375 
Q 52.203125 43.703125 52.203125 31.203125 
z
" id="DejaVuSans-97"/>
    </defs>
    <g transform="translate(184.744687 35.472)scale(0.12 -0.12)">
     <use xlink:href="#DejaVuSans-68"/>
     <use x="77.001953" xlink:href="#DejaVuSans-101"/>
     <use x="138.525391" xlink:href="#DejaVuSans-110"/>
     <use x="201.904297" xlink:href="#DejaVuSans-115"/>
     <use x="254.003906" xlink:href="#DejaVuSans-105"/>
     <use x="281.787109" xlink:href="#DejaVuSans-116"/>
     <use x="320.996094" xlink:href="#DejaVuSans-121"/>
     <use x="380.175781" xlink:href="#DejaVuSans-32"/>
     <use x="411.962891" xlink:href="#DejaVuSans-111"/>
     <use x="473.144531" xlink:href="#DejaVuSans-102"/>
     <use x="508.349609" xlink:href="#DejaVuSans-32"/>
     <use x="540.136719" xlink:href="#DejaVuSans-83"/>
     <use x="603.613281" xlink:href="#DejaVuSans-116"/>
     <use x="642.822266" xlink:href="#DejaVuSans-97"/>
     <use x="704.101562" xlink:href="#DejaVuSans-116"/>
     <use x="743.310547" xlink:href="#DejaVuSans-101"/>
     <use x="804.833984" xlink:href="#DejaVuSans-115"/>
    </g>
   </g>
   <g id="legend_1">
    <g id="patch_7">
     <path d="M 344.734063 122.862625 
L 407.72 122.862625 
Q 409.72 122.862625 409.72 120.862625 
L 409.72 48.472 
Q 409.72 46.472 407.72 46.472 
L 344.734063 46.472 
Q 342.734063 46.472 342.734063 48.472 
L 342.734063 120.862625 
Q 342.734063 122.862625 344.734063 122.862625 
z
" style="fill:#ffffff;opacity:0.8;stroke:#cccccc;stroke-linejoin:miter;"/>
    </g>
    <g id="line2d_36">
     <path d="M 346.734063 54.570438 
L 366.734063 54.570438 
" style="fill:none;stroke:#1f77b4;stroke-linecap:square;stroke-width:1.5;"/>
    </g>
    <g id="line2d_37"/>
    <g id="text_33">
     <!-- W = 0 -->
     <defs>
      <path d="M 3.328125 72.90625 
L 13.28125 72.90625 
L 28.609375 11.28125 
L 43.890625 72.90625 
L 54.984375 72.90625 
L 70.3125 11.28125 
L 85.59375 72.90625 
L 95.609375 72.90625 
L 77.296875 0 
L 64.890625 0 
L 49.515625 63.28125 
L 33.984375 0 
L 21.578125 0 
z
" id="DejaVuSans-87"/>
      <path d="M 10.59375 45.40625 
L 73.1875 45.40625 
L 73.1875 37.203125 
L 10.59375 37.203125 
z
M 10.59375 25.484375 
L 73.1875 25.484375 
L 73.1875 17.1875 
L 10.59375 17.1875 
z
" id="DejaVuSans-61"/>
     </defs>
     <g transform="translate(374.734063 58.070438)scale(0.1 -0.1)">
      <use xlink:href="#DejaVuSans-87"/>
      <use x="98.876953" xlink:href="#DejaVuSans-32"/>
      <use x="130.664062" xlink:href="#DejaVuSans-61"/>
      <use x="214.453125" xlink:href="#DejaVuSans-32"/>
      <use x="246.240234" xlink:href="#DejaVuSans-48"/>
     </g>
    </g>
    <g id="line2d_38">
     <path d="M 346.734063 69.248563 
L 366.734063 69.248563 
" style="fill:none;stroke:#ff7f0e;stroke-linecap:square;stroke-width:1.5;"/>
    </g>
    <g id="line2d_39"/>
    <g id="text_34">
     <!-- W = 2 -->
     <g transform="translate(374.734063 72.748563)scale(0.1 -0.1)">
      <use xlink:href="#DejaVuSans-87"/>
      <use x="98.876953" xlink:href="#DejaVuSans-32"/>
      <use x="130.664062" xlink:href="#DejaVuSans-61"/>
      <use x="214.453125" xlink:href="#DejaVuSans-32"/>
      <use x="246.240234" xlink:href="#DejaVuSans-50"/>
     </g>
    </g>
    <g id="line2d_40">
     <path d="M 346.734063 83.926688 
L 366.734063 83.926688 
" style="fill:none;stroke:#2ca02c;stroke-linecap:square;stroke-width:1.5;"/>
    </g>
    <g id="line2d_41"/>
    <g id="text_35">
     <!-- W = 4 -->
     <g transform="translate(374.734063 87.426688)scale(0.1 -0.1)">
      <use xlink:href="#DejaVuSans-87"/>
      <use x="98.876953" xlink:href="#DejaVuSans-32"/>
      <use x="130.664062" xlink:href="#DejaVuSans-61"/>
      <use x="214.453125" xlink:href="#DejaVuSans-32"/>
      <use x="246.240234" xlink:href="#DejaVuSans-52"/>
     </g>
    </g>
    <g id="line2d_42">
     <path d="M 346.734063 98.604813 
L 366.734063 98.604813 
" style="fill:none;stroke:#d62728;stroke-linecap:square;stroke-width:1.5;"/>
    </g>
    <g id="line2d_43"/>
    <g id="text_36">
     <!-- W = 6 -->
     <g transform="translate(374.734063 102.104813)scale(0.1 -0.1)">
      <use xlink:href="#DejaVuSans-87"/>
      <use x="98.876953" xlink:href="#DejaVuSans-32"/>
      <use x="130.664062" xlink:href="#DejaVuSans-61"/>
      <use x="214.453125" xlink:href="#DejaVuSans-32"/>
      <use x="246.240234" xlink:href="#DejaVuSans-54"/>
     </g>
    </g>
    <g id="line2d_44">
     <path d="M 346.734063 113.282938 
L 366.734063 113.282938 
" style="fill:none;stroke:#9467bd;stroke-linecap:square;stroke-width:1.5;"/>
    </g>
    <g id="line2d_45"/>
    <g id="text_37">
     <!-- W = 8 -->
     <g transform="translate(374.734063 116.782938)scale(0.1 -0.1)">
      <use xlink:href="#DejaVuSans-87"/>
      <use x="98.876953" xlink:href="#DejaVuSans-32"/>
      <use x="130.664062" xlink:href="#DejaVuSans-61"/>
      <use x="214.453125" xlink:href="#DejaVuSans-32"/>
      <use x="246.240234" xlink:href="#DejaVuSans-56"/>
     </g>
    </g>
   </g>
  </g>
 </g>
 <defs>
  <clipPath id="p5ee2a0455f">
   <rect height="266.112" width="357.12" x="57.6" y="41.472"/>
  </clipPath>
 </defs>
</svg>
